<?xml version="1.0" encoding="UTF-8" standalone="no"?>
<!-- Created with Inkscape (http://www.inkscape.org/) -->
<svg
   xmlns:dc="http://purl.org/dc/elements/1.1/"
   xmlns:cc="http://creativecommons.org/ns#"
   xmlns:rdf="http://www.w3.org/1999/02/22-rdf-syntax-ns#"
   xmlns:svg="http://www.w3.org/2000/svg"
   xmlns="http://www.w3.org/2000/svg"
   xmlns:xlink="http://www.w3.org/1999/xlink"
   xmlns:sodipodi="http://sodipodi.sourceforge.net/DTD/sodipodi-0.dtd"
   xmlns:inkscape="http://www.inkscape.org/namespaces/inkscape"
   id="svg2"
   sodipodi:version="0.32"
   inkscape:version="0.46"
   width="159.97301"
   height="75.873001"
   sodipodi:docname="dst.svg"
   inkscape:output_extension="org.inkscape.output.svg.inkscape"
   version="1.0"
   inkscape:export-filename="/home/pinheiro/pics/oxygen/scalable/Weather/sun.png"
   inkscape:export-xdpi="90"
   inkscape:export-ydpi="90">
  <metadata
     id="metadata7">
    <rdf:RDF>
      <cc:Work
         rdf:about="">
        <dc:format>image/svg+xml</dc:format>
        <dc:type
           rdf:resource="http://purl.org/dc/dcmitype/StillImage" />
      </cc:Work>
    </rdf:RDF>
  </metadata>
  <defs
     id="defs5">
    <linearGradient
       id="linearGradient912">
      <stop
         style="stop-color: rgb(255, 255, 255); stop-opacity: 1;"
         offset="0.0000000"
         id="stop913" />
      <stop
         style="stop-color: rgb(255, 255, 255); stop-opacity: 0;"
         offset="1.0000000"
         id="stop914" />
    </linearGradient>
    <radialGradient
       xlink:href="#linearGradient912"
       id="radialGradient915"
       gradientTransform="scale(1.0224747,0.9780193)"
       cx="44.699298"
       cy="42.72097"
       fx="44.699298"
       fy="42.72097"
       r="12.239094"
       gradientUnits="userSpaceOnUse" />
    <linearGradient
       id="linearGradient3840">
      <stop
         id="stop3842"
         offset="0"
         style="stop-color:#fffb04;stop-opacity:1;" />
      <stop
         id="stop3844"
         offset="1"
         style="stop-color:#fbf700;stop-opacity:0;" />
    </linearGradient>
    <linearGradient
       inkscape:collect="always"
       id="linearGradient3830">
      <stop
         style="stop-color:#fffec3;stop-opacity:1;"
         offset="0"
         id="stop3832" />
      <stop
         style="stop-color:#fffec3;stop-opacity:0;"
         offset="1"
         id="stop3834" />
    </linearGradient>
    <linearGradient
       id="linearGradient3814">
      <stop
         id="stop3816"
         offset="0"
         style="stop-color:#fffd33;stop-opacity:1;" />
      <stop
         style="stop-color:#fae926;stop-opacity:1;"
         offset="0.45616123"
         id="stop3826" />
      <stop
         style="stop-color:#f5d619;stop-opacity:1;"
         offset="0.66785437"
         id="stop3818" />
      <stop
         style="stop-color:#ebb000;stop-opacity:1;"
         offset="0.8712194"
         id="stop3820" />
      <stop
         id="stop3822"
         offset="1"
         style="stop-color:#db6700;stop-opacity:1;" />
    </linearGradient>
    <linearGradient
       id="linearGradient3713">
      <stop
         style="stop-color:#fed94f;stop-opacity:1;"
         offset="0"
         id="stop3715" />
      <stop
         id="stop3838"
         offset="0.625"
         style="stop-color:#feb64f;stop-opacity:0.49803922;" />
      <stop
         style="stop-color:#fed94f;stop-opacity:0;"
         offset="1"
         id="stop3717" />
    </linearGradient>
    <linearGradient
       id="linearGradient3399">
      <stop
         id="stop3401"
         offset="0"
         style="stop-color:#ffffff;stop-opacity:0;" />
      <stop
         style="stop-color:#ffffff;stop-opacity:0;"
         offset="0.88333333"
         id="stop3403" />
      <stop
         id="stop3405"
         offset="1"
         style="stop-color:#ffffff;stop-opacity:1;" />
    </linearGradient>
    <linearGradient
       id="linearGradient3385">
      <stop
         style="stop-color:#ffffff;stop-opacity:0;"
         offset="0"
         id="stop3387" />
      <stop
         id="stop3397"
         offset="0.5"
         style="stop-color:#ffffff;stop-opacity:0;" />
      <stop
         style="stop-color:#ffffff;stop-opacity:0"
         offset="1"
         id="stop3389" />
    </linearGradient>
    <linearGradient
       id="linearGradient3370">
      <stop
         style="stop-color:#fffd33;stop-opacity:1;"
         offset="0"
         id="stop3372" />
      <stop
         id="stop3824"
         offset="0.08712194"
         style="stop-color:#fae926;stop-opacity:1;" />
      <stop
         id="stop3812"
         offset="0.4356097"
         style="stop-color:#f5d619;stop-opacity:1;" />
      <stop
         id="stop3380"
         offset="0.8712194"
         style="stop-color:#ebb000;stop-opacity:1;" />
      <stop
         style="stop-color:#db6700;stop-opacity:1;"
         offset="1"
         id="stop3374" />
    </linearGradient>
    <inkscape:perspective
       sodipodi:type="inkscape:persp3d"
       inkscape:vp_x="0 : 64 : 1"
       inkscape:vp_y="0 : 1000 : 0"
       inkscape:vp_z="128 : 64 : 1"
       inkscape:persp3d-origin="64 : 42.666667 : 1"
       id="perspective204" />
    <linearGradient
       inkscape:collect="always"
       id="linearGradient4379">
      <stop
         style="stop-color:#ed7600;stop-opacity:1;"
         offset="0"
         id="stop4381" />
      <stop
         style="stop-color:#ed7600;stop-opacity:0;"
         offset="1"
         id="stop4383" />
    </linearGradient>
    <linearGradient
       id="linearGradient4265"
       gradientTransform="scale(1.3006061,0.7688723)"
       x1="10.76422"
       y1="55.600899"
       x2="85.549049"
       y2="55.600899"
       gradientUnits="userSpaceOnUse">
      <stop
         id="stop4267"
         offset="0"
         style="stop-color:#ffffff;stop-opacity:0.18909091;" />
      <stop
         id="stop4269"
         offset="1"
         style="stop-color:#ffffff;stop-opacity:0;" />
    </linearGradient>
    <linearGradient
       id="linearGradient4233">
      <stop
         id="stop4235"
         offset="0"
         style="stop-color:#ffffff;stop-opacity:1;" />
      <stop
         style="stop-color:#ffffff;stop-opacity:1;"
         offset="0.70818084"
         id="stop4239" />
      <stop
         id="stop4237"
         offset="1"
         style="stop-color:#ffffff;stop-opacity:0;" />
    </linearGradient>
    <linearGradient
       inkscape:collect="always"
       id="linearGradient4004">
      <stop
         style="stop-color:#ffffff;stop-opacity:1;"
         offset="0"
         id="stop4006" />
      <stop
         style="stop-color:#ffffff;stop-opacity:0;"
         offset="1"
         id="stop4008" />
    </linearGradient>
    <linearGradient
       id="linearGradient3887">
      <stop
         style="stop-color:#ffff81;stop-opacity:1;"
         offset="0"
         id="stop3889" />
      <stop
         style="stop-color:#ffb700;stop-opacity:1;"
         offset="1"
         id="stop3891" />
    </linearGradient>
    <linearGradient
       inkscape:collect="always"
       id="linearGradient3320">
      <stop
         style="stop-color:#fff3b5;stop-opacity:1;"
         offset="0"
         id="stop3322" />
      <stop
         style="stop-color:#fff3b5;stop-opacity:0;"
         offset="1"
         id="stop3324" />
    </linearGradient>
    <linearGradient
       id="linearGradient5368">
      <stop
         style="stop-color:#a2adc3;stop-opacity:1;"
         offset="0"
         id="stop5370" />
      <stop
         style="stop-color:#ffffff;stop-opacity:0;"
         offset="1"
         id="stop5372" />
    </linearGradient>
    <linearGradient
       inkscape:collect="always"
       id="linearGradient4942">
      <stop
         style="stop-color:#000000;stop-opacity:1;"
         offset="0"
         id="stop4944" />
      <stop
         style="stop-color:#000000;stop-opacity:0;"
         offset="1"
         id="stop4946" />
    </linearGradient>
    <linearGradient
       inkscape:collect="always"
       id="linearGradient4708">
      <stop
         style="stop-color:#ffffff;stop-opacity:1;"
         offset="0"
         id="stop4710" />
      <stop
         style="stop-color:#ffffff;stop-opacity:0;"
         offset="1"
         id="stop4712" />
    </linearGradient>
    <linearGradient
       id="linearGradient4696">
      <stop
         style="stop-color:#ffffff;stop-opacity:0.10181818;"
         offset="0"
         id="stop4698" />
      <stop
         style="stop-color:#000000;stop-opacity:0.20784314;"
         offset="1"
         id="stop4700" />
    </linearGradient>
    <linearGradient
       id="linearGradient4518">
      <stop
         style="stop-color:#545148;stop-opacity:1;"
         offset="0"
         id="stop4520" />
      <stop
         style="stop-color:#1e1d19;stop-opacity:0.38181818;"
         offset="1"
         id="stop4522" />
    </linearGradient>
    <linearGradient
       id="linearGradient4510">
      <stop
         style="stop-color:#141412;stop-opacity:1;"
         offset="0"
         id="stop4512" />
      <stop
         style="stop-color:#403d38;stop-opacity:1;"
         offset="1"
         id="stop4514" />
    </linearGradient>
    <linearGradient
       inkscape:collect="always"
       id="linearGradient4256">
      <stop
         style="stop-color:#ffffff;stop-opacity:1;"
         offset="0"
         id="stop4258" />
      <stop
         style="stop-color:#ffffff;stop-opacity:0;"
         offset="1"
         id="stop4260" />
    </linearGradient>
    <linearGradient
       id="linearGradient3171">
      <stop
         style="stop-color:#000000;stop-opacity:1;"
         offset="0"
         id="stop3173" />
      <stop
         style="stop-color:#2c231d;stop-opacity:0.67450982;"
         offset="1"
         id="stop3175" />
    </linearGradient>
    <linearGradient
       id="linearGradient2923">
      <stop
         style="stop-color:#000000;stop-opacity:1;"
         offset="0"
         id="stop2925" />
      <stop
         id="stop2931"
         offset="0.53500003"
         style="stop-color:#434343;stop-opacity:1;" />
      <stop
         style="stop-color:#000000;stop-opacity:1;"
         offset="1"
         id="stop2927" />
    </linearGradient>
    <linearGradient
       id="linearGradient2915">
      <stop
         style="stop-color:#918e89;stop-opacity:1;"
         offset="0"
         id="stop2917" />
      <stop
         style="stop-color:#ffffff;stop-opacity:1;"
         offset="1"
         id="stop2919" />
    </linearGradient>
    <clipPath
       clipPathUnits="userSpaceOnUse"
       id="clipPath3031">
      <path
         sodipodi:nodetypes="cccscscscccsccscscscccssccccscccccsc"
         id="path3033"
         d="M -43.781248,455.0625 L -43.781248,465.6875 C -42.443568,465.88427 -41.406238,467.01424 -41.406248,468.40625 C -41.799488,472.01749 -44.386148,470.07909 -44.281248,473.59375 C -44.197618,476.39584 -41.583798,475.81447 -41.406248,478.75 C -41.799488,482.36125 -44.456448,480.42713 -44.281248,483.9375 C -44.090548,487.75868 -41.632328,485.46592 -41.406248,489 C -41.799488,492.61125 -44.386148,490.6416 -44.281248,494.15625 C -44.197618,496.95834 -41.309748,496.41479 -41.406248,499.34375 C -41.406248,500.01652 -40.919578,500.37864 -37.937498,503.59375 L -37.437498,503.59375 C -35.892168,504.6544 -23.044498,505.5 -7.4374981,505.5 C 8.1695019,505.5 21.392172,505.27941 22.937502,504.21875 L 22.906252,504.21875 C 25.790612,501.51461 29.312502,502.10884 29.312502,499.5625 C 29.312502,496.06204 26.861992,498.0175 26.468752,494.40625 C 26.694862,490.87218 29.121802,493.13368 29.312502,489.3125 C 29.487702,485.80214 26.861992,487.7675 26.468752,484.15625 C 26.646332,481.2207 29.228872,481.77084 29.312502,478.96875 C 29.417402,475.4541 26.861992,477.42374 26.468752,473.8125 C 26.468772,472.42047 27.474822,471.25927 28.812502,471.0625 L 28.812502,455.28125 C 28.812502,456.67671 12.562542,457.8125 -7.4374981,457.8125 C -27.437538,457.81249 -43.656248,456.67671 -43.656248,455.28125 C -43.656248,455.20361 -43.598358,455.13837 -43.499998,455.0625 L -43.781248,455.0625 z M -25.781248,515.15625 L -19.124998,521.84375 C -18.681538,522.15979 -13.616038,522.40625 -7.4374981,522.40625 C -1.4639081,522.40625 3.4659619,522.14529 4.1875019,521.84375 L 4.2187519,521.84375 C 4.2587919,521.82323 4.2812519,521.80228 4.2812519,521.78125 L 10.875002,515.21875 L 10.812502,515.21875 C 9.6787019,515.69255 1.9493519,516.0625 -7.4374981,516.0625 C -17.146378,516.06245 -25.084398,515.65291 -25.781248,515.15625 z"
         style="opacity:1;fill:url(#linearGradient3035);fill-opacity:1;stroke:none;stroke-width:1;stroke-linecap:round;stroke-linejoin:miter;stroke-miterlimit:4;stroke-dasharray:none;stroke-dashoffset:1.08779998;stroke-opacity:1" />
    </clipPath>
    <linearGradient
       inkscape:collect="always"
       xlink:href="#linearGradient2915"
       id="linearGradient3035"
       gradientUnits="userSpaceOnUse"
       x1="-44.289536"
       y1="488.73438"
       x2="-2.206815"
       y2="488.73438" />
    <clipPath
       clipPathUnits="userSpaceOnUse"
       id="clipPath3104">
      <path
         sodipodi:nodetypes="cccscscscccsccscscscccssccccscccccsc"
         id="path3106"
         d="M -43.781248,455.0625 L -43.781248,465.6875 C -42.443568,465.88427 -41.406238,467.01424 -41.406248,468.40625 C -41.799488,472.01749 -44.386148,470.07909 -44.281248,473.59375 C -44.197618,476.39584 -41.583798,475.81447 -41.406248,478.75 C -41.799488,482.36125 -44.456448,480.42713 -44.281248,483.9375 C -44.090548,487.75868 -41.632328,485.46592 -41.406248,489 C -41.799488,492.61125 -44.386148,490.6416 -44.281248,494.15625 C -44.197618,496.95834 -41.309748,496.41479 -41.406248,499.34375 C -41.406248,500.01652 -40.919578,500.37864 -37.937498,503.59375 L -37.437498,503.59375 C -35.892168,504.6544 -23.044498,505.5 -7.4374981,505.5 C 8.1695019,505.5 21.392172,505.27941 22.937502,504.21875 L 22.906252,504.21875 C 25.790612,501.51461 29.312502,502.10884 29.312502,499.5625 C 29.312502,496.06204 26.861992,498.0175 26.468752,494.40625 C 26.694862,490.87218 29.121802,493.13368 29.312502,489.3125 C 29.487702,485.80214 26.861992,487.7675 26.468752,484.15625 C 26.646332,481.2207 29.228872,481.77084 29.312502,478.96875 C 29.417402,475.4541 26.861992,477.42374 26.468752,473.8125 C 26.468772,472.42047 27.474822,471.25927 28.812502,471.0625 L 28.812502,455.28125 C 28.812502,456.67671 12.562542,457.8125 -7.4374981,457.8125 C -27.437538,457.81249 -43.656248,456.67671 -43.656248,455.28125 C -43.656248,455.20361 -43.598358,455.13837 -43.499998,455.0625 L -43.781248,455.0625 z M -25.781248,515.15625 L -19.124998,521.84375 C -18.681538,522.15979 -13.616038,522.40625 -7.4374981,522.40625 C -1.4639081,522.40625 3.4659619,522.14529 4.1875019,521.84375 L 4.2187519,521.84375 C 4.2587919,521.82323 4.2812519,521.80228 4.2812519,521.78125 L 10.875002,515.21875 L 10.812502,515.21875 C 9.6787019,515.69255 1.9493519,516.0625 -7.4374981,516.0625 C -17.146378,516.06245 -25.084398,515.65291 -25.781248,515.15625 z"
         style="opacity:1;fill:url(#linearGradient3108);fill-opacity:1;stroke:none;stroke-width:1;stroke-linecap:round;stroke-linejoin:miter;stroke-miterlimit:4;stroke-dasharray:none;stroke-dashoffset:1.08779998;stroke-opacity:1" />
    </clipPath>
    <linearGradient
       inkscape:collect="always"
       xlink:href="#linearGradient2915"
       id="linearGradient3108"
       gradientUnits="userSpaceOnUse"
       x1="-44.289536"
       y1="488.73438"
       x2="-2.206815"
       y2="488.73438" />
    <radialGradient
       inkscape:collect="always"
       xlink:href="#linearGradient4696"
       id="radialGradient4702"
       cx="-149.31557"
       cy="323.59668"
       fx="-145.7198"
       fy="369.03467"
       r="82.980965"
       gradientTransform="matrix(1,0,0,1.0287648,0,-17.421506)"
       gradientUnits="userSpaceOnUse" />
    <linearGradient
       inkscape:collect="always"
       xlink:href="#linearGradient4708"
       id="linearGradient4720"
       gradientUnits="userSpaceOnUse"
       x1="-149.31557"
       y1="230.11546"
       x2="-149.31557"
       y2="436.96805" />
    <mask
       maskUnits="userSpaceOnUse"
       id="mask4716">
      <path
         id="path4718"
         d="M -149.32752,230.11546 C -195.13285,230.11546 -232.29653,267.27913 -232.29653,313.08447 C -232.29653,328.46479 -228.10099,342.87263 -220.79895,355.22632 C -220.62553,355.51971 -220.47388,355.81969 -220.29698,356.11075 C -210.22189,374.66721 -192.2135,397.57114 -189.29415,419.62232 C -187.43137,429.08174 -187.54289,433.20697 -178.58539,434.5381 C -171.00272,435.66493 -160.4174,436.43141 -152.00471,436.68941 L -152.00471,436.80893 C -151.15601,436.80893 -150.21692,436.77736 -149.27971,436.76112 C -148.3425,436.77736 -147.40341,436.80893 -146.55471,436.80893 L -146.55471,436.68941 C -138.14203,436.43141 -127.5567,435.66493 -119.97403,434.5381 C -111.01653,433.20697 -111.15195,429.08174 -109.28917,419.62232 C -106.2499,396.66532 -86.813236,372.77703 -77.043364,353.83992 C -70.238756,341.80113 -66.334601,327.89084 -66.334601,313.08447 C -66.334601,267.27914 -103.52218,230.11545 -149.32752,230.11546 z"
         style="opacity:0.95880151;fill:url(#linearGradient4720);fill-opacity:1;stroke:none;stroke-width:1;stroke-linecap:round;stroke-linejoin:miter;stroke-miterlimit:4;stroke-dasharray:none;stroke-dashoffset:1.08779998;stroke-opacity:1" />
    </mask>
    <linearGradient
       inkscape:collect="always"
       xlink:href="#linearGradient4708"
       id="linearGradient4726"
       gradientUnits="userSpaceOnUse"
       x1="-149.31557"
       y1="230.11546"
       x2="-149.31557"
       y2="436.96805" />
    <mask
       maskUnits="userSpaceOnUse"
       id="mask4722">
      <path
         id="path4724"
         d="M -149.32752,230.11546 C -195.13285,230.11546 -232.29653,267.27913 -232.29653,313.08447 C -232.29653,328.46479 -228.10099,342.87263 -220.79895,355.22632 C -220.62553,355.51971 -220.47388,355.81969 -220.29698,356.11075 C -210.22189,374.66721 -192.2135,397.57114 -189.29415,419.62232 C -187.43137,429.08174 -187.54289,433.20697 -178.58539,434.5381 C -171.00272,435.66493 -160.4174,436.43141 -152.00471,436.68941 L -152.00471,436.80893 C -151.15601,436.80893 -150.21692,436.77736 -149.27971,436.76112 C -148.3425,436.77736 -147.40341,436.80893 -146.55471,436.80893 L -146.55471,436.68941 C -138.14203,436.43141 -127.5567,435.66493 -119.97403,434.5381 C -111.01653,433.20697 -111.15195,429.08174 -109.28917,419.62232 C -106.2499,396.66532 -86.813236,372.77703 -77.043364,353.83992 C -70.238756,341.80113 -66.334601,327.89084 -66.334601,313.08447 C -66.334601,267.27914 -103.52218,230.11545 -149.32752,230.11546 z"
         style="opacity:0.95880151;fill:url(#linearGradient4726);fill-opacity:1;stroke:none;stroke-width:1;stroke-linecap:round;stroke-linejoin:miter;stroke-miterlimit:4;stroke-dasharray:none;stroke-dashoffset:1.08779998;stroke-opacity:1" />
    </mask>
    <linearGradient
       inkscape:collect="always"
       xlink:href="#linearGradient4708"
       id="linearGradient4732"
       gradientUnits="userSpaceOnUse"
       x1="-149.31557"
       y1="230.11546"
       x2="-149.31557"
       y2="436.96805"
       gradientTransform="matrix(0.9766082,0,0,1.5086574,544.42178,-228.20906)" />
    <mask
       maskUnits="userSpaceOnUse"
       id="mask4728">
      <path
         id="path4730"
         d="M 398.58731,118.95634 C 353.85345,118.95634 317.55909,175.02359 317.55909,244.12815 C 317.55909,267.33179 321.65649,289.06828 328.78772,307.70577 C 328.95709,308.14839 329.10519,308.60096 329.27795,309.04007 C 339.11737,337.03541 356.70451,371.5896 359.55557,404.85727 C 361.37478,419.1283 361.26586,425.35186 370.01383,427.36008 C 377.41913,429.06008 387.75684,430.21643 395.97274,430.60567 L 395.97274,430.78598 C 396.80159,430.78598 397.71871,430.73835 398.634,430.71385 C 399.54929,430.73835 400.46641,430.78598 401.29526,430.78598 L 401.29526,430.60567 C 409.51115,430.21643 419.84887,429.06008 427.25417,427.36008 C 436.00213,425.35186 435.86988,419.1283 437.68909,404.85727 C 440.65726,370.22302 459.63927,334.18378 469.18061,305.61417 C 475.82604,287.45176 479.63887,266.46589 479.63887,244.12815 C 479.63887,175.0236 443.32118,118.95633 398.58731,118.95634 z"
         style="opacity:0.95880151;fill:url(#linearGradient4732);fill-opacity:1;stroke:none;stroke-width:1;stroke-linecap:round;stroke-linejoin:miter;stroke-miterlimit:4;stroke-dasharray:none;stroke-dashoffset:1.08779998;stroke-opacity:1" />
    </mask>
    <linearGradient
       inkscape:collect="always"
       xlink:href="#linearGradient4708"
       id="linearGradient4738"
       gradientUnits="userSpaceOnUse"
       x1="-149.31557"
       y1="230.11546"
       x2="-149.31557"
       y2="436.96805" />
    <mask
       maskUnits="userSpaceOnUse"
       id="mask4734">
      <path
         id="path4736"
         d="M -149.32752,230.11546 C -195.13285,230.11546 -232.29653,267.27913 -232.29653,313.08447 C -232.29653,328.46479 -228.10099,342.87263 -220.79895,355.22632 C -220.62553,355.51971 -220.47388,355.81969 -220.29698,356.11075 C -210.22189,374.66721 -192.2135,397.57114 -189.29415,419.62232 C -187.43137,429.08174 -187.54289,433.20697 -178.58539,434.5381 C -171.00272,435.66493 -160.4174,436.43141 -152.00471,436.68941 L -152.00471,436.80893 C -151.15601,436.80893 -150.21692,436.77736 -149.27971,436.76112 C -148.3425,436.77736 -147.40341,436.80893 -146.55471,436.80893 L -146.55471,436.68941 C -138.14203,436.43141 -127.5567,435.66493 -119.97403,434.5381 C -111.01653,433.20697 -111.15195,429.08174 -109.28917,419.62232 C -106.2499,396.66532 -86.813236,372.77703 -77.043364,353.83992 C -70.238756,341.80113 -66.334601,327.89084 -66.334601,313.08447 C -66.334601,267.27914 -103.52218,230.11545 -149.32752,230.11546 z"
         style="opacity:0.95880151;fill:url(#linearGradient4738);fill-opacity:1;stroke:none;stroke-width:1;stroke-linecap:round;stroke-linejoin:miter;stroke-miterlimit:4;stroke-dasharray:none;stroke-dashoffset:1.08779998;stroke-opacity:1" />
    </mask>
    <clipPath
       clipPathUnits="userSpaceOnUse"
       id="clipPath4811">
      <path
         id="path4813"
         d="M 78.486249,235.20065 C 32.680919,235.20065 -4.482761,272.36432 -4.482761,318.16966 C -4.482761,333.54998 -0.28722095,347.95782 7.014819,360.31151 C 7.188239,360.6049 7.339889,360.90488 7.516789,361.19594 C 17.591879,379.7524 35.600269,402.65633 38.519619,424.70751 C 40.382399,434.16693 40.270879,438.29216 49.228379,439.62329 C 56.811049,440.75012 67.396369,441.5166 75.809059,441.7746 L 75.809059,441.89412 C 76.657759,441.89412 77.596849,441.86255 78.534059,441.84631 C 79.471269,441.86255 80.410359,441.89412 81.259059,441.89412 L 81.259059,441.7746 C 89.671739,441.5166 100.25707,440.75012 107.83974,439.62329 C 116.79724,438.29216 116.66182,434.16693 118.5246,424.70751 C 121.56387,401.75051 141.00054,377.86222 150.77041,358.92511 C 157.57502,346.88632 161.47917,332.97603 161.47917,318.16966 C 161.47917,272.36433 124.29159,235.20064 78.486249,235.20065 z"
         style="opacity:0.95880151;fill:#2e2e2e;fill-opacity:1;stroke:none;stroke-width:1;stroke-linecap:round;stroke-linejoin:miter;stroke-miterlimit:4;stroke-dasharray:none;stroke-dashoffset:1.08779998;stroke-opacity:1" />
    </clipPath>
    <clipPath
       clipPathUnits="userSpaceOnUse"
       id="clipPath4995">
      <path
         style="fill:#545454;fill-opacity:1;stroke:none;stroke-width:1;stroke-linecap:round;stroke-linejoin:miter;stroke-miterlimit:4;stroke-dashoffset:1.08779998;stroke-opacity:1"
         d="M -393.35733,109.35431 C -393.35733,97.810975 -356.70784,97.469661 -356.70784,109.35431 L -356.70784,161.05371 L -393.35733,161.05371 L -393.35733,109.35431 z"
         id="path4997"
         sodipodi:nodetypes="ccccc" />
    </clipPath>
    <clipPath
       clipPathUnits="userSpaceOnUse"
       id="clipPath5163">
      <path
         id="path5165"
         d="M -197.28125,61.34375 C -204.71008,61.284835 -209.52235,64.631477 -206.9375,73.75 C -201.41378,93.235894 -195.90625,84.703561 -195.90625,108.5 L -176.28125,109.28125 L -176.28125,109.34375 L -175.5,109.3125 L -174.71875,109.34375 L -174.71875,109.28125 L -155.09375,108.5 C -155.09375,84.703561 -149.58622,93.235894 -144.0625,73.75 C -139.27576,56.863905 -159.78658,59.787537 -175.5,67.4375 C -182.72814,63.918532 -190.95303,61.393937 -197.28125,61.34375 z"
         style="fill:none;fill-opacity:0.75;fill-rule:evenodd;stroke:#000000;stroke-width:1px;stroke-linecap:butt;stroke-linejoin:miter;stroke-opacity:1" />
    </clipPath>
    <radialGradient
       gradientTransform="matrix(0.9999855,-5.3762664e-3,5.3763439e-3,1,-0.3162062,0.3826806)"
       gradientUnits="userSpaceOnUse"
       r="55.257881"
       fy="91.950981"
       fx="37.877705"
       cy="59.005695"
       cx="71.179642"
       id="radialGradient3186"
       xlink:href="#linearGradient3175"
       inkscape:collect="always" />
    <radialGradient
       r="97.124817"
       fy="43.704659"
       fx="-335.45837"
       cy="106.33506"
       cx="-384.55103"
       gradientTransform="matrix(0.6070527,7.4029987e-5,-7.224142e-5,0.5924692,292.60346,2.7706458)"
       gradientUnits="userSpaceOnUse"
       id="radialGradient2187"
       xlink:href="#linearGradient4157"
       inkscape:collect="always" />
    <linearGradient
       id="linearGradient3175">
      <stop
         id="stop3177"
         offset="0"
         style="stop-color:#ffffff;stop-opacity:1;" />
      <stop
         id="stop3179"
         offset="1"
         style="stop-color:#bebebe;stop-opacity:1;" />
    </linearGradient>
    <linearGradient
       id="linearGradient4157">
      <stop
         style="stop-color:#ffffff;stop-opacity:1;"
         offset="0"
         id="stop4159" />
      <stop
         style="stop-color:#a3a3a3;stop-opacity:1;"
         offset="1"
         id="stop4161" />
    </linearGradient>
    <clipPath
       clipPathUnits="userSpaceOnUse"
       id="clipPath3350">
      <path
         style="opacity:1;fill:#fff3b5;fill-opacity:1;stroke:none;stroke-width:0.5;stroke-linecap:round;stroke-linejoin:round;stroke-miterlimit:4;stroke-dasharray:none;stroke-dashoffset:4.15;stroke-opacity:1"
         d="M -156.19711,-15.455866 C -159.48159,-15.455866 -162.10336,-13.687115 -162.10336,-11.487116 L -162.10336,108.85663 C -162.10336,111.05663 -159.48158,112.82538 -156.19711,112.82538 L -73.57211,112.82538 C -70.287631,112.82538 -67.63461,111.05663 -67.63461,108.85663 L -67.63461,-11.487116 C -67.63461,-13.687115 -70.287631,-15.455866 -73.57211,-15.455866 L -156.19711,-15.455866 z M -114.07211,-4.6746156 C -93.10428,-4.6746201 -76.10336,12.357562 -76.10336,33.325384 C -76.10336,40.103141 -77.894735,46.470763 -81.00961,51.981634 C -85.48186,60.650276 -94.368356,71.566604 -95.75961,82.075384 C -96.612316,86.405524 -96.534228,88.309798 -100.63461,88.919134 C -104.10565,89.434952 -108.97113,89.769779 -112.82211,89.887884 L -112.82211,89.950384 C -113.21061,89.950384 -113.64309,89.926569 -114.07211,89.919134 C -114.50113,89.926568 -114.93361,89.950381 -115.32211,89.950384 L -115.32211,89.887884 C -119.1731,89.769782 -124.00732,89.434953 -127.47836,88.919134 C -131.57874,88.309797 -131.5319,86.405528 -132.38461,82.075384 C -133.72097,71.981247 -141.96015,61.50728 -146.57211,53.012884 C -146.65309,52.879648 -146.71148,52.740934 -146.79086,52.606634 C -150.13344,46.951615 -152.07211,40.365874 -152.07211,33.325384 C -152.07211,12.357555 -135.03993,-4.6746156 -114.07211,-4.6746156 z"
         id="path3352" />
    </clipPath>
    <radialGradient
       inkscape:collect="always"
       xlink:href="#linearGradient3320"
       id="radialGradient3388"
       gradientUnits="userSpaceOnUse"
       gradientTransform="matrix(2.426628,-7.2753074e-2,9.211083e-2,3.0722924,-1.0739474,-73.917999)"
       cx="-47.601742"
       cy="27.750637"
       fx="-47.601742"
       fy="27.750637"
       r="37.985325" />
    <radialGradient
       inkscape:collect="always"
       xlink:href="#linearGradient3320"
       id="radialGradient3716"
       gradientUnits="userSpaceOnUse"
       gradientTransform="matrix(2.426628,-7.2753074e-2,9.211083e-2,3.0722924,-1.0739474,-73.917999)"
       cx="-47.601742"
       cy="27.750637"
       fx="-47.601742"
       fy="27.750637"
       r="37.985325" />
    <linearGradient
       inkscape:collect="always"
       xlink:href="#linearGradient4256"
       id="linearGradient3738"
       gradientUnits="userSpaceOnUse"
       x1="-217.71802"
       y1="68.62236"
       x2="-217.71802"
       y2="98.311188"
       gradientTransform="translate(299.36227,0)" />
    <mask
       maskUnits="userSpaceOnUse"
       id="mask3734">
      <rect
         style="opacity:1;fill:url(#linearGradient3738);fill-opacity:1;stroke:none;stroke-width:0.5;stroke-linecap:round;stroke-linejoin:round;stroke-miterlimit:4;stroke-dasharray:none;stroke-dashoffset:4.15;stroke-opacity:1"
         id="rect3736"
         width="143.49597"
         height="114.63184"
         x="-4.1699218e-06"
         y="-16.320656"
         rx="3.4583859"
         ry="2.3325741" />
    </mask>
    <linearGradient
       inkscape:collect="always"
       xlink:href="#linearGradient4942"
       id="linearGradient3804"
       gradientUnits="userSpaceOnUse"
       x1="441.40042"
       y1="461.55243"
       x2="443.60681"
       y2="450.45648" />
    <radialGradient
       inkscape:collect="always"
       xlink:href="#linearGradient3320"
       id="radialGradient3826"
       gradientUnits="userSpaceOnUse"
       gradientTransform="matrix(2.426628,-7.2753074e-2,9.211083e-2,3.0722924,-1.0739474,-73.917999)"
       cx="-47.601742"
       cy="27.750637"
       fx="-47.601742"
       fy="27.750637"
       r="37.985325" />
    <radialGradient
       inkscape:collect="always"
       xlink:href="#linearGradient3320"
       id="radialGradient3906"
       gradientUnits="userSpaceOnUse"
       gradientTransform="matrix(2.426628,-7.2753074e-2,9.211083e-2,3.0722924,-1.0739474,-73.917999)"
       cx="-48.065014"
       cy="39.955364"
       fx="-48.065014"
       fy="39.955364"
       r="37.985325" />
    <linearGradient
       inkscape:collect="always"
       xlink:href="#linearGradient4004"
       id="linearGradient4010"
       x1="189.53679"
       y1="10.291679"
       x2="172.47989"
       y2="134.53677"
       gradientUnits="userSpaceOnUse" />
    <filter
       inkscape:collect="always"
       id="filter4124"
       x="-0.17646861"
       width="1.3529372"
       y="-0.10994841"
       height="1.2198968">
      <feGaussianBlur
         inkscape:collect="always"
         stdDeviation="4.1908692"
         id="feGaussianBlur4126" />
    </filter>
    <clipPath
       clipPathUnits="userSpaceOnUse"
       id="clipPath4136">
      <path
         style="opacity:0.48913042;fill:#ed7600;fill-opacity:1;stroke:none;stroke-width:0.5;stroke-linecap:round;stroke-linejoin:round;stroke-miterlimit:4;stroke-dasharray:none;stroke-dashoffset:4.15;stroke-opacity:1"
         d="M 173.67785,13.644108 C 172.27666,13.644108 171.14106,14.818731 171.14106,16.300358 L 171.14106,120.39411 C 171.14106,121.87574 172.27666,123.05036 173.67785,123.05036 L 211.45539,123.05036 L 211.45539,114.11286 C 210.10403,114.24475 208.74172,114.34307 207.52451,114.39411 L 207.52451,114.45661 C 207.24981,114.45661 206.95942,114.43255 206.65606,114.42536 C 206.35271,114.43255 206.03946,114.45661 205.76476,114.45661 L 205.76476,114.39411 C 203.04177,114.27993 199.62601,113.95533 197.17168,113.45661 C 194.27236,112.86747 194.30083,111.01824 193.69789,106.83161 C 192.75296,97.072021 186.92608,86.950727 183.66501,78.737858 C 183.60776,78.609038 183.56117,78.461457 183.50503,78.331608 C 181.14154,72.864013 179.77984,66.513752 179.77984,59.706608 C 179.77984,39.433715 191.80712,22.956608 206.63321,22.956608 C 208.27942,22.956607 209.89031,23.192683 211.45539,23.581608 L 211.45539,13.644108 L 173.67785,13.644108 z"
         id="path4138" />
    </clipPath>
    <linearGradient
       inkscape:collect="always"
       xlink:href="#linearGradient4004"
       id="linearGradient4146"
       gradientUnits="userSpaceOnUse"
       x1="189.53679"
       y1="10.291679"
       x2="172.47989"
       y2="134.53677" />
    <linearGradient
       inkscape:collect="always"
       xlink:href="#linearGradient4004"
       id="linearGradient4151"
       gradientUnits="userSpaceOnUse"
       x1="189.53679"
       y1="10.291679"
       x2="172.47989"
       y2="134.53677" />
    <clipPath
       clipPathUnits="userSpaceOnUse"
       id="clipPath4153">
      <path
         id="path4155"
         d="M 291.35713,22.97153 C 275.62617,22.97153 262.86301,39.419725 262.86301,59.692618 C 262.86301,66.499764 264.30389,72.876501 266.81163,78.344096 C 266.8712,78.473946 266.92328,78.606714 266.98403,78.735534 C 270.44412,86.9484 276.62876,97.085405 277.63136,106.845 C 278.2711,111.03162 278.2328,112.8574 281.30908,113.44654 C 283.9132,113.94526 287.54852,114.2845 290.43771,114.39868 L 290.43771,114.45158 C 290.72917,114.45158 291.05168,114.43761 291.37355,114.43042 C 291.69542,114.43761 292.01793,114.45158 292.3094,114.45158 L 292.3094,114.39868 C 295.19858,114.2845 298.83391,113.94526 301.43803,113.44654 C 304.51432,112.8574 304.4678,111.03162 305.10755,106.845 C 306.15132,96.6845 312.82648,86.111829 316.18175,77.730492 C 318.51866,72.402268 319.85947,66.24574 319.85947,59.692618 C 319.85947,39.419729 307.08811,22.971526 291.35713,22.97153 z"
         style="opacity:0.95880151;fill:url(#linearGradient4158);fill-opacity:1;stroke:none;stroke-width:1;stroke-linecap:round;stroke-linejoin:miter;stroke-miterlimit:4;stroke-dasharray:none;stroke-dashoffset:1.08779998;stroke-opacity:1;filter:url(#filter4124)"
         transform="matrix(1.2960312,0,0,0.9769164,-150.92473,0.4224704)" />
    </clipPath>
    <linearGradient
       inkscape:collect="always"
       xlink:href="#linearGradient4004"
       id="linearGradient4158"
       gradientUnits="userSpaceOnUse"
       gradientTransform="translate(83.2,0)"
       x1="189.53679"
       y1="10.291679"
       x2="172.47989"
       y2="134.53677" />
    <linearGradient
       inkscape:collect="always"
       xlink:href="#linearGradient4004"
       id="linearGradient4164"
       gradientUnits="userSpaceOnUse"
       x1="189.53679"
       y1="10.291679"
       x2="172.47989"
       y2="134.53677" />
    <linearGradient
       inkscape:collect="always"
       xlink:href="#linearGradient4004"
       id="linearGradient4271"
       gradientUnits="userSpaceOnUse"
       x1="189.53679"
       y1="10.291679"
       x2="172.47989"
       y2="134.53677" />
    <linearGradient
       inkscape:collect="always"
       xlink:href="#linearGradient4004"
       id="linearGradient4295"
       gradientUnits="userSpaceOnUse"
       gradientTransform="translate(83.2,0)"
       x1="189.53679"
       y1="10.291679"
       x2="172.47989"
       y2="134.53677" />
    <linearGradient
       inkscape:collect="always"
       xlink:href="#linearGradient4379"
       id="linearGradient4385"
       x1="112.52884"
       y1="452.43869"
       x2="81.058289"
       y2="401.73364"
       gradientUnits="userSpaceOnUse" />
    <inkscape:perspective
       id="perspective3356"
       inkscape:persp3d-origin="372.04724 : 350.78739 : 1"
       inkscape:vp_z="744.09448 : 526.18109 : 1"
       inkscape:vp_y="0 : 1000 : 0"
       inkscape:vp_x="0 : 526.18109 : 1"
       sodipodi:type="inkscape:persp3d" />
    <radialGradient
       inkscape:collect="always"
       xlink:href="#linearGradient3814"
       id="radialGradient3506"
       gradientUnits="userSpaceOnUse"
       cx="65.745453"
       cy="62.836365"
       fx="65.745453"
       fy="68.23539"
       r="37.81818"
       gradientTransform="matrix(1.0195364,7.2119038e-8,-7.211903e-8,1.0195363,-1.2844289,-1.2275975)" />
    <linearGradient
       inkscape:collect="always"
       xlink:href="#linearGradient4708"
       id="linearGradient3508"
       gradientUnits="userSpaceOnUse"
       gradientTransform="matrix(1.0476191,0,0,1.0476191,-3.0169893,-2.7158188)"
       x1="71.95282"
       y1="-4.8529768"
       x2="71.95282"
       y2="61.732422" />
    <radialGradient
       inkscape:collect="always"
       xlink:href="#linearGradient3399"
       id="radialGradient3510"
       gradientUnits="userSpaceOnUse"
       gradientTransform="matrix(1.4106583,0,0,1.254292,-26.017987,-29.033628)"
       cx="63.35677"
       cy="68.61705"
       fx="63.35677"
       fy="68.61705"
       r="28.863983" />
    <linearGradient
       inkscape:collect="always"
       xlink:href="#linearGradient4708"
       id="linearGradient3645"
       gradientUnits="userSpaceOnUse"
       gradientTransform="matrix(1.0476191,0,0,1.0476191,-3.0169893,-2.7158188)"
       x1="71.95282"
       y1="14.110354"
       x2="71.95282"
       y2="61.732422" />
    <radialGradient
       inkscape:collect="always"
       xlink:href="#linearGradient3399"
       id="radialGradient3647"
       gradientUnits="userSpaceOnUse"
       gradientTransform="matrix(1.4106583,0,0,1.254292,-26.017987,-29.033628)"
       cx="63.35677"
       cy="68.61705"
       fx="63.35677"
       fy="68.61705"
       r="28.863983" />
    <filter
       inkscape:collect="always"
       id="filter3669">
      <feGaussianBlur
         inkscape:collect="always"
         stdDeviation="0.53676588"
         id="feGaussianBlur3671" />
    </filter>
    <radialGradient
       inkscape:collect="always"
       xlink:href="#linearGradient3830"
       id="radialGradient3836"
       cx="63.127274"
       cy="84.072731"
       fx="62.545456"
       fy="91.05455"
       r="18.327272"
       gradientUnits="userSpaceOnUse" />
    <radialGradient
       inkscape:collect="always"
       xlink:href="#linearGradient3713"
       id="radialGradient3910"
       gradientUnits="userSpaceOnUse"
       gradientTransform="matrix(1.1770558,5.5329949e-3,-4.7006553e-3,0.999989,-5.0812974,-0.1593006)"
       cx="28.798531"
       cy="3.7549102"
       fx="28.798531"
       fy="3.7549102"
       r="74.355316" />
    <linearGradient
       y2="18.50366"
       x2="76.284439"
       y1="18.50366"
       x1="64.341988"
       gradientTransform="scale(1.039383,0.9621093)"
       gradientUnits="userSpaceOnUse"
       id="linearGradient3005"
       xlink:href="#linearGradient3207"
       inkscape:collect="always" />
    <linearGradient
       y2="19.281664"
       x2="80"
       y1="15.336544"
       x1="73.742638"
       spreadMethod="reflect"
       gradientUnits="userSpaceOnUse"
       id="linearGradient3003"
       xlink:href="#linearGradient5412"
       inkscape:collect="always" />
    <linearGradient
       gradientTransform="translate(-36.000006,-20.000008)"
       y2="105.10625"
       x2="98.097946"
       y1="77.512512"
       x1="97.622581"
       gradientUnits="userSpaceOnUse"
       id="linearGradient4259"
       xlink:href="#linearGradient3225"
       inkscape:collect="always" />
    <linearGradient
       id="linearGradient3225">
      <stop
         id="stop3227"
         offset="0"
         style="stop-color:#ffffff;stop-opacity:1;" />
      <stop
         id="stop3229"
         offset="1"
         style="stop-color:#ffffff;stop-opacity:0;" />
    </linearGradient>
    <filter
       inkscape:collect="always"
       id="filter3191">
      <feGaussianBlur
         inkscape:collect="always"
         stdDeviation="0.2025"
         id="feGaussianBlur3193" />
    </filter>
    <linearGradient
       y2="72"
       x2="14.697635"
       y1="96"
       x1="26.697636"
       gradientTransform="matrix(2.4999996,0,0,2.4999996,17.25592,-145.99998)"
       gradientUnits="userSpaceOnUse"
       id="linearGradient4262"
       xlink:href="#linearGradient3260"
       inkscape:collect="always" />
    <linearGradient
       id="linearGradient3260">
      <stop
         style="stop-color:#ffffff;stop-opacity:1;"
         offset="0"
         id="stop3262" />
      <stop
         style="stop-color:#ffffff;stop-opacity:0;"
         offset="1"
         id="stop3264" />
    </linearGradient>
    <linearGradient
       y2="96.001434"
       x2="11.68106"
       y1="52"
       x1="6.6976352"
       gradientTransform="matrix(2.4999996,0,0,2.4999996,17.25592,-145.99998)"
       gradientUnits="userSpaceOnUse"
       id="linearGradient2842"
       xlink:href="#linearGradient3260"
       inkscape:collect="always" />
    <linearGradient
       y2="108.0104"
       x2="11.68106"
       y1="60.539303"
       x1="11.68106"
       gradientTransform="matrix(2.4999996,0,0,2.4999996,17.28126,-145.99998)"
       gradientUnits="userSpaceOnUse"
       id="linearGradient4268"
       xlink:href="#linearGradient3202"
       inkscape:collect="always" />
    <linearGradient
       id="linearGradient3202">
      <stop
         id="stop3204"
         offset="0"
         style="stop-color:#cbff9c;stop-opacity:1;" />
      <stop
         id="stop3206"
         offset="1"
         style="stop-color:#65c171;stop-opacity:0" />
    </linearGradient>
    <radialGradient
       r="20"
       fy="96"
       fx="-40"
       cy="84"
       cx="-44"
       gradientTransform="matrix(2.4999996,0,0,2.4999996,174,-145.99998)"
       gradientUnits="userSpaceOnUse"
       id="radialGradient4271"
       xlink:href="#XMLID_4_"
       inkscape:collect="always" />
    <radialGradient
       id="XMLID_4_"
       cx="48"
       cy="-0.2148"
       r="55.147999"
       gradientTransform="matrix(0.9792,0,0,0.9725,133.0002,20.8762)"
       gradientUnits="userSpaceOnUse">
      <stop
         offset="0"
         style="stop-color:#72D13D"
         id="stop3082" />
      <stop
         offset="0.3553"
         style="stop-color:#35AC1C"
         id="stop3084" />
      <stop
         offset="0.6194"
         style="stop-color:#0F9508"
         id="stop3086" />
      <stop
         offset="0.7574"
         style="stop-color:#008C00"
         id="stop3088" />
      <stop
         offset="1"
         style="stop-color:#007A00"
         id="stop3090" />
    </radialGradient>
    <linearGradient
       y2="19.281664"
       x2="80"
       y1="15.336544"
       x1="73.742638"
       spreadMethod="reflect"
       gradientUnits="userSpaceOnUse"
       id="linearGradient4289"
       xlink:href="#linearGradient3260"
       inkscape:collect="always" />
    <filter
       inkscape:collect="always"
       x="-0.10207015"
       width="1.2041403"
       y="-0.12495601"
       height="1.249912"
       id="filter3387">
      <feGaussianBlur
         inkscape:collect="always"
         stdDeviation="0.44655691"
         id="feGaussianBlur3389" />
    </filter>
    <radialGradient
       r="24"
       fy="100"
       fx="-60"
       cy="84"
       cx="-44"
       gradientTransform="matrix(2.4999996,0,0,2.4999996,174,-145.99998)"
       gradientUnits="userSpaceOnUse"
       id="radialGradient4275"
       xlink:href="#linearGradient3030"
       inkscape:collect="always" />
    <linearGradient
       inkscape:collect="always"
       id="linearGradient3030">
      <stop
         style="stop-color:#000000;stop-opacity:0.77902622"
         offset="0"
         id="stop3032" />
      <stop
         style="stop-color:#000000;stop-opacity:0;"
         offset="1"
         id="stop3034" />
    </linearGradient>
    <linearGradient
       y2="19.281664"
       x2="80"
       y1="15.336544"
       x1="73.742638"
       spreadMethod="reflect"
       gradientUnits="userSpaceOnUse"
       id="linearGradient4291"
       xlink:href="#linearGradient3260"
       inkscape:collect="always" />
    <linearGradient
       y2="0"
       x2="28"
       y1="57.5"
       x1="28"
       gradientUnits="userSpaceOnUse"
       id="linearGradient5412">
      <stop
         id="stop5414"
         style="stop-color:#fff14d;stop-opacity:1;"
         offset="0" />
      <stop
         id="stop5416"
         style="stop-color:#f8ffa0;stop-opacity:0;"
         offset="1" />
    </linearGradient>
    <linearGradient
       id="linearGradient3207">
      <stop
         id="stop3209"
         offset="0"
         style="stop-color:#ffffff;stop-opacity:1;" />
      <stop
         id="stop3211"
         offset="1"
         style="stop-color:#252525;stop-opacity:0;" />
    </linearGradient>
    <linearGradient
       y2="19.281664"
       x2="80"
       y1="15.336544"
       x1="73.742638"
       spreadMethod="reflect"
       gradientUnits="userSpaceOnUse"
       id="linearGradient4297"
       xlink:href="#linearGradient3260"
       inkscape:collect="always" />
    <linearGradient
       y2="19.281664"
       x2="80"
       y1="15.336544"
       x1="73.742638"
       spreadMethod="reflect"
       gradientUnits="userSpaceOnUse"
       id="linearGradient4299"
       xlink:href="#linearGradient3260"
       inkscape:collect="always" />
    <linearGradient
       y2="104.80668"
       x2="-62.424866"
       y1="76.708466"
       x1="-13.757333"
       gradientTransform="matrix(2.4999996,0,0,2.4999996,174,-145.99998)"
       gradientUnits="userSpaceOnUse"
       id="linearGradient4284"
       xlink:href="#XMLID_4_"
       inkscape:collect="always" />
    <inkscape:perspective
       id="perspective2811"
       inkscape:persp3d-origin="64 : 42.666667 : 1"
       inkscape:vp_z="128 : 64 : 1"
       inkscape:vp_y="0 : 1000 : 0"
       inkscape:vp_x="0 : 64 : 1"
       sodipodi:type="inkscape:persp3d" />
    <linearGradient
       inkscape:collect="always"
       xlink:href="#XMLID_4_"
       id="linearGradient3695"
       gradientUnits="userSpaceOnUse"
       gradientTransform="matrix(1.02177,0,0,1.0217699,-81.972255,-179.06128)"
       x1="-13.757333"
       y1="76.708466"
       x2="-62.424866"
       y2="104.80668" />
    <linearGradient
       inkscape:collect="always"
       xlink:href="#linearGradient3260"
       id="linearGradient3697"
       gradientUnits="userSpaceOnUse"
       spreadMethod="reflect"
       x1="73.742638"
       y1="15.336544"
       x2="80"
       y2="19.281664" />
    <linearGradient
       inkscape:collect="always"
       xlink:href="#linearGradient3260"
       id="linearGradient3699"
       gradientUnits="userSpaceOnUse"
       spreadMethod="reflect"
       x1="73.742638"
       y1="15.336544"
       x2="80"
       y2="19.281664" />
    <linearGradient
       inkscape:collect="always"
       xlink:href="#linearGradient5412"
       id="linearGradient3701"
       gradientUnits="userSpaceOnUse"
       spreadMethod="reflect"
       x1="73.742638"
       y1="15.336544"
       x2="80"
       y2="19.281664" />
    <linearGradient
       inkscape:collect="always"
       xlink:href="#linearGradient3207"
       id="linearGradient3703"
       gradientUnits="userSpaceOnUse"
       gradientTransform="scale(1.039383,0.9621093)"
       x1="64.341988"
       y1="18.50366"
       x2="76.284439"
       y2="18.50366" />
    <linearGradient
       inkscape:collect="always"
       xlink:href="#linearGradient3260"
       id="linearGradient3705"
       gradientUnits="userSpaceOnUse"
       spreadMethod="reflect"
       x1="73.742638"
       y1="15.336544"
       x2="80"
       y2="19.281664" />
    <radialGradient
       inkscape:collect="always"
       xlink:href="#linearGradient3030"
       id="radialGradient3707"
       gradientUnits="userSpaceOnUse"
       gradientTransform="matrix(1.02177,0,0,1.0217699,-81.972255,-179.06128)"
       cx="-44"
       cy="84"
       fx="-60"
       fy="100"
       r="24" />
    <linearGradient
       inkscape:collect="always"
       xlink:href="#linearGradient3260"
       id="linearGradient3709"
       gradientUnits="userSpaceOnUse"
       spreadMethod="reflect"
       x1="73.742638"
       y1="15.336544"
       x2="80"
       y2="19.281664" />
    <radialGradient
       inkscape:collect="always"
       xlink:href="#XMLID_4_"
       id="radialGradient3711"
       gradientUnits="userSpaceOnUse"
       gradientTransform="matrix(1.02177,0,0,1.0217699,-81.972255,-179.06128)"
       cx="-44"
       cy="84"
       fx="-40"
       fy="96"
       r="20" />
    <linearGradient
       inkscape:collect="always"
       xlink:href="#linearGradient3202"
       id="linearGradient3714"
       gradientUnits="userSpaceOnUse"
       gradientTransform="matrix(1.02177,0,0,1.0217699,-146.02447,-179.06128)"
       x1="11.68106"
       y1="60.539303"
       x2="11.68106"
       y2="108.0104" />
    <linearGradient
       inkscape:collect="always"
       xlink:href="#linearGradient4265"
       id="linearGradient3716"
       gradientUnits="userSpaceOnUse"
       gradientTransform="matrix(0.5315682,0,0,0.3142443,-153.08746,-119.38991)"
       x1="10.76422"
       y1="55.600899"
       x2="85.549049"
       y2="55.600899" />
    <linearGradient
       inkscape:collect="always"
       xlink:href="#linearGradient3260"
       id="linearGradient3718"
       gradientUnits="userSpaceOnUse"
       gradientTransform="matrix(1.02177,0,0,1.0217699,-146.03482,-179.06128)"
       x1="26.697636"
       y1="96"
       x2="14.697635"
       y2="72" />
    <linearGradient
       inkscape:collect="always"
       xlink:href="#linearGradient3225"
       id="linearGradient3720"
       gradientUnits="userSpaceOnUse"
       gradientTransform="translate(-36.000006,-20.000008)"
       x1="97.622581"
       y1="77.512512"
       x2="98.097946"
       y2="105.10625" />
    <radialGradient
       inkscape:collect="always"
       xlink:href="#linearGradient912"
       id="radialGradient2733"
       gradientUnits="userSpaceOnUse"
       gradientTransform="scale(1.0224747,0.9780193)"
       cx="44.699298"
       cy="42.72097"
       fx="44.699298"
       fy="42.72097"
       r="12.239094" />
  </defs>
  <sodipodi:namedview
     inkscape:window-height="720"
     inkscape:window-width="1272"
     inkscape:pageshadow="2"
     inkscape:pageopacity="0.0"
     guidetolerance="10.0"
     gridtolerance="10.0"
     objecttolerance="10.0"
     borderopacity="1.0"
     bordercolor="#666666"
     pagecolor="#ffffff"
     id="base"
     inkscape:zoom="1.381453"
     inkscape:cx="98.882482"
     inkscape:cy="45.82895"
     inkscape:window-x="0"
     inkscape:window-y="35"
     inkscape:current-layer="svg2"
     showguides="true"
     inkscape:guide-bbox="true"
     width="128px"
     height="128px"
     showgrid="false" />
  <g
     id="g2664"
     transform="matrix(0.8938134,0,0,0.8938134,73.824381,-4.5072816)"
     inkscape:export-filename="/home/alex/code/solarbeam/images/dst-status-nodst.png"
     inkscape:export-xdpi="23.723852"
     inkscape:export-ydpi="23.723852">
    <g
       id="g916">
      <path
         id="path910"
         d="M 68.562931,51.180321 C 68.562931,63.069348 58.913865,72.718414 47.024837,72.718414 C 35.13581,72.718414 25.486744,63.069348 25.486744,51.180321 C 25.486744,39.291293 35.13581,29.642227 47.024837,29.642227 C 58.913865,29.642227 68.562931,39.291293 68.562931,51.180321 z"
         style="fill:#ffbb00;fill-opacity:0.98076896;fill-rule:evenodd;stroke-width:1.30841005;stroke-linejoin:round"
         transform="matrix(0.964932,0,0,0.945883,4.5275,-0.755837)" />
      <path
         sodipodi:nodetypes="ccccc"
         id="path854"
         d="M 47.528593,16.16176 C 45.898483,19.614057 49.854492,24.832983 52.948318,20.915009 C 54.140635,17.504718 53.293569,13.765848 53.697143,10.219636 C 54.487548,7.1213391 53.255242,4.6333245 49.816525,4.2638439 C 47.827095,4.6538753 48.093381,12.121929 47.528593,16.16176 z"
         style="fill:#ffbb00;fill-opacity:0.98076896;fill-rule:evenodd;stroke:none;stroke-width:1.25;stroke-linecap:round;stroke-linejoin:round;stroke-dasharray:none;stroke-opacity:1" />
      <path
         id="path855"
         d="M 25.351361,9.6280267 C 24.177553,9.6650009 23.13241,10.3666 22.672912,11.426055 C 22.213414,12.48551 22.423152,13.71009 23.210419,14.564355 C 23.210419,14.564355 25.660339,17.277274 33.281894,25.767161 C 33.97649,26.61639 35.090974,27.022748 36.18288,26.824904 C 37.274787,26.62706 38.167447,25.857026 38.506464,24.820515 C 38.84548,23.784005 38.576001,22.648723 37.805012,21.865392 C 30.185852,13.378174 27.763691,10.662587 27.763691,10.662587 C 27.16374,9.973658 26.274697,9.5923797 25.351361,9.6280267 L 25.351361,9.6280267 z"
         style="fill:#ffbb00;fill-opacity:0.98076896;fill-rule:evenodd;stroke:none;stroke-width:1.25;stroke-linecap:round;stroke-linejoin:round;stroke-dasharray:none;stroke-opacity:1" />
      <path
         sodipodi:nodetypes="ccccccc"
         id="path870"
         d="M 10.605997,24.850836 C 10.294477,25.944669 9.8595731,27.750975 11.663835,28.445848 C 15.812898,31.213173 20.623006,32.425267 25.709081,34.485651 C 27.664918,35.253282 29.918357,33.479168 29.70163,31.45669 C 29.609856,29.537305 27.54781,28.740073 25.969546,28.202447 C 22.007786,26.586027 17.94964,25.207431 13.907066,23.799061 C 12.711068,23.679186 11.582122,24.236346 10.605997,24.850836 z"
         style="fill:#ffbb00;fill-opacity:0.98076896;fill-rule:evenodd;stroke:none;stroke-width:1.25;stroke-linecap:round;stroke-linejoin:round;stroke-dasharray:none;stroke-opacity:1" />
      <path
         sodipodi:nodetypes="cccccc"
         id="path873"
         d="M 6.4751911,46.864567 C 6.6045527,48.241684 5.8733996,49.830959 7.1859746,50.637843 C 9.9302872,51.535336 16.453697,51.502774 21.387826,51.552007 C 23.778565,51.367447 24.943871,48.044152 23.100939,46.498907 C 21.682925,45.177968 19.620711,45.771687 17.872619,45.587178 C 15.822326,45.541971 6.0332469,45.212039 6.4751911,46.864567 z"
         style="fill:#ffbb00;fill-opacity:0.98076896;fill-rule:evenodd;stroke:none;stroke-width:1.25;stroke-linecap:round;stroke-linejoin:round;stroke-dasharray:none;stroke-opacity:1" />
      <path
         id="path858"
         d="M 25.110128,56.833515 C 24.635643,56.845428 24.170727,56.966958 23.753193,57.188221 C 18.048948,60.068762 15.126367,61.511034 13.651563,62.213227 C 12.964478,62.540366 12.638223,62.674732 12.475552,62.745286 C 12.463639,62.750453 12.394768,62.770709 12.38509,62.774845 C 10.968278,63.231533 10.104819,64.634855 10.353679,66.076361 C 10.602539,67.517867 11.888962,68.564545 13.380176,68.538821 C 13.380176,68.538821 13.776214,68.529712 13.892796,68.509262 C 14.009378,68.488812 14.099529,68.467247 14.164183,68.450145 C 14.293492,68.41594 14.368211,68.385351 14.43557,68.361468 C 14.570287,68.313703 14.657266,68.27356 14.79742,68.213674 C 15.077727,68.0939 15.496961,67.904251 16.274971,67.53382 C 17.830991,66.792959 20.80108,65.341371 26.527372,62.449697 C 27.811388,61.841595 28.485379,60.43499 28.142949,59.078023 C 27.800518,57.721055 26.535277,56.784685 25.110128,56.833515 L 25.110128,56.833515 z"
         style="fill:#ffbb00;fill-opacity:0.98076896;fill-rule:evenodd;stroke:none;stroke-width:1.25;stroke-linecap:round;stroke-linejoin:round;stroke-dasharray:none;stroke-opacity:1" />
      <path
         id="path859"
         d="M 33.734206,68.036321 C 32.959883,68.062731 32.225635,68.380269 31.683726,68.923086 C 26.499873,74.004606 23.884053,76.472898 22.63749,77.613389 C 22.151723,78.057821 22.035574,78.161429 21.913792,78.263684 C 21.908509,78.26812 21.888281,78.289365 21.883637,78.293243 C 20.95859,78.830881 20.395612,79.810723 20.406086,80.864863 C 20.406086,80.864863 20.526663,81.751505 20.526702,81.751628 C 20.526742,81.751752 21.220089,82.874699 21.220247,82.874865 C 21.220405,82.87503 22.3959,83.643271 22.396257,83.643395 C 22.396614,83.643519 23.420864,83.820748 23.421497,83.820748 C 23.422131,83.820748 23.893277,83.795395 24.054734,83.76163 C 24.216191,83.727866 24.31551,83.678623 24.416583,83.643395 C 24.618731,83.57294 24.741602,83.516826 24.838741,83.466042 C 25.227295,83.262904 25.296829,83.195482 25.441823,83.081777 C 25.731812,82.854366 26.092961,82.547133 26.768605,81.928982 C 28.119891,80.692678 30.727913,78.225186 35.935457,73.120443 C 36.836302,72.270512 37.108692,70.963819 36.620209,69.835593 C 36.131725,68.707367 34.983692,67.991628 33.734206,68.036321 L 33.734206,68.036321 z"
         style="fill:#ffbb00;fill-opacity:0.98076896;fill-rule:evenodd;stroke:none;stroke-width:1.25;stroke-linecap:round;stroke-linejoin:round;stroke-dasharray:none;stroke-opacity:1" />
      <path
         sodipodi:nodetypes="cccccccccc"
         id="path860"
         d="M 51.012516,71.760736 C 50.212586,71.791552 49.457979,72.132885 48.914983,72.709519 C 48.371987,73.286152 48.085165,74.050761 48.117721,74.834857 C 48.242567,79.852493 47.094194,85.913537 48.648359,87.977014 C 50.438846,88.757077 51.464828,88.6684 51.464828,88.6684 L 53.883411,87.82922 C 54.48024,85.879062 54.494925,82.757814 54.148544,74.687063 C 54.140956,73.887359 53.803158,73.124791 53.212239,72.573386 C 52.621321,72.021982 51.827709,71.728796 51.012516,71.760736 L 51.012516,71.760736 z"
         style="fill:#ffbb00;fill-opacity:0.98076896;fill-rule:evenodd;stroke:none;stroke-width:1.25;stroke-linecap:round;stroke-linejoin:round;stroke-dasharray:none;stroke-opacity:1" />
      <path
         id="path861"
         d="M 66.391116,69.721175 C 65.274171,69.705057 64.239633,70.295485 63.702511,71.255608 C 63.165389,72.21573 63.213682,73.388246 63.828016,74.302797 C 66.981735,79.111738 68.740622,81.490746 69.85884,82.786188 C 70.41795,83.433909 70.797164,83.809504 71.306238,84.175454 C 71.560775,84.35843 71.838073,84.551315 72.361632,84.707514 C 72.623412,84.785613 72.95929,84.865298 73.356718,84.855308 C 73.555431,84.850314 73.771311,84.817949 73.989954,84.766632 C 74.208597,84.715314 74.623191,84.530161 74.623191,84.530161 C 75.642113,84.046837 76.29912,83.044895 76.324551,81.935572 C 76.349981,80.82625 75.739552,79.796388 74.743807,79.268685 C 74.721284,79.244728 74.74366,79.257765 74.47242,78.943537 C 73.685549,78.031957 71.975025,75.808675 68.893908,71.110441 C 68.35317,70.26208 67.411435,69.739336 66.391116,69.721175 z"
         style="fill:#ffbb00;fill-opacity:0.98076896;fill-rule:evenodd;stroke:none;stroke-width:1.25;stroke-linecap:round;stroke-linejoin:round;stroke-dasharray:none;stroke-opacity:1" />
      <path
         sodipodi:nodetypes="ccccccc"
         id="path862"
         d="M 75.678585,58.547929 C 74.350085,58.696737 73.280177,59.685317 73.050186,60.97653 C 72.820197,62.267745 73.485048,63.55324 74.683499,64.134552 C 78.173701,65.900386 82.495456,69.348908 85.388211,68.793319 C 87.781904,68.339597 87.987224,66.715782 87.794658,65.091968 C 87.396773,63.531843 86.007081,62.745623 77.457678,58.873076 C 76.91259,58.588708 76.291589,58.475214 75.678585,58.547929 z"
         style="fill:#ffbb00;fill-opacity:0.98076896;fill-rule:evenodd;stroke:none;stroke-width:1.25;stroke-linecap:round;stroke-linejoin:round;stroke-dasharray:none;stroke-opacity:1" />
      <path
         id="path863"
         d="M 91.961809,43.56159 C 91.632442,43.568645 91.30648,43.628557 90.996877,43.738943 C 90.806306,43.756752 90.61662,43.767979 89.941483,43.798061 C 88.127488,43.878888 84.361647,43.945855 76.764133,43.945855 C 75.676667,43.930779 74.665161,44.490848 74.11694,45.411599 C 73.568719,46.33235 73.568719,47.471132 74.11694,48.391883 C 74.665161,49.312634 75.676667,49.872702 76.764133,49.857626 C 84.407336,49.857626 88.216687,49.769217 90.21287,49.680273 C 91.210962,49.6358 91.756981,49.617633 92.172888,49.562037 C 92.380841,49.53424 92.520387,49.522175 92.866433,49.414243 C 93.039455,49.360277 93.264565,49.308035 93.680594,49.029978 C 93.784601,48.960464 93.913245,48.851443 94.042443,48.734389 C 94.171642,48.617335 94.464368,48.291328 94.464601,48.291007 C 94.464833,48.290685 94.826392,47.552199 94.82645,47.552035 C 94.826508,47.551872 95.007375,46.576593 95.007375,46.576593 C 95.023644,45.777322 94.70899,45.005667 94.135172,44.437607 C 93.561353,43.869547 92.777297,43.553518 91.961809,43.56159 z"
         style="fill:#ffbb00;fill-opacity:0.98076896;fill-rule:evenodd;stroke:none;stroke-width:1.25;stroke-linecap:round;stroke-linejoin:round;stroke-dasharray:none;stroke-opacity:1" />
      <path
         sodipodi:nodetypes="ccccccc"
         id="path864"
         d="M 90.972605,27.977944 C 87.789517,27.977944 87.788502,27.786775 76.37213,30.792166 C 75.287401,31.009164 74.411172,31.791333 74.089517,32.829751 C 73.767862,33.868168 74.052498,34.995865 74.831008,35.76745 C 75.609518,36.539035 76.756724,36.830444 77.819527,36.526583 C 83.03956,35.278537 91.518928,33.776796 91.823174,31.986779 C 93.330138,30.455486 92.051901,29.314223 90.972605,27.977944 z"
         style="fill:#ffbb00;fill-opacity:0.98076896;fill-rule:evenodd;stroke:none;stroke-width:1.25;stroke-linecap:round;stroke-linejoin:round;stroke-dasharray:none;stroke-opacity:1" />
      <path
         sodipodi:nodetypes="cccccc"
         id="path865"
         d="M 75.99152,10.632665 C 74.201033,11.607743 72.018707,13.57175 66.240346,21.894951 C 65.341048,23.274405 65.752812,25.107308 67.160047,25.988852 C 68.567281,26.870397 70.437094,26.466761 71.336392,25.087307 C 74.285321,20.562707 78.78486,15.324826 79.16407,13.460027 C 78.902326,11.932526 77.446923,10.795056 75.99152,10.632665 z"
         style="fill:#ffbb00;fill-opacity:0.98076896;fill-rule:evenodd;stroke:none;stroke-width:1.25;stroke-linecap:round;stroke-linejoin:round;stroke-dasharray:none;stroke-opacity:1" />
      <path
         id="path911"
         d="M 58.218067,41.781933 C 58.218067,48.389411 52.611721,53.752002 45.703903,53.752002 C 38.796084,53.752002 33.189739,48.389411 33.189739,41.781933 C 33.189739,35.174454 38.796084,29.811863 45.703903,29.811863 C 52.611721,29.811863 58.218067,35.174454 58.218067,41.781933 z"
         style="fill:url(#radialGradient915);fill-opacity:1;fill-rule:evenodd;stroke:none;stroke-width:1pt" />
    </g>
  </g>
  <g
     id="g3680"
     transform="matrix(1.0442783,0,0,1.0442783,245.22988,145.11412)"
     inkscape:export-xdpi="23.723852"
     inkscape:export-ydpi="23.723852"
     inkscape:export-filename="/home/alex/code/solarbeam/images/dst-status-nodst.png"
     style="opacity:0.75">
    <path
       clip-path="none"
       sodipodi:nodetypes="ccccccccccccccccccccc"
       id="path3012"
       d="M -128.90982,-117.75508 C -132.29956,-117.75508 -135.1043,-114.95035 -135.1043,-111.5606 L -135.1043,-101.40676 L -145.25814,-101.40676 C -148.64788,-101.40676 -151.45262,-98.602028 -151.45262,-95.212285 L -151.45262,-91.252926 C -151.45262,-87.863174 -148.64788,-85.058446 -145.25814,-85.058446 L -135.1043,-85.058446 L -135.1043,-74.904598 C -135.1043,-71.514856 -132.29956,-68.710117 -128.90982,-68.710117 L -124.95045,-68.710117 C -121.56071,-68.710117 -118.75598,-71.514856 -118.75598,-74.904598 L -118.75598,-85.058446 L -108.60213,-85.058446 C -105.21239,-85.058446 -102.40766,-87.863174 -102.40766,-91.252926 L -102.40766,-95.212285 C -102.40766,-98.602028 -105.21239,-101.40676 -108.60213,-101.40676 L -118.75598,-101.40676 L -118.75598,-111.5606 C -118.75598,-114.95035 -121.56071,-117.75508 -124.95045,-117.75508 L -128.90982,-117.75508 z"
       style="fill:url(#linearGradient3695);fill-opacity:1;stroke:none;stroke-width:1.25000000000000000;stroke-linecap:round;stroke-linejoin:round;stroke-miterlimit:4;stroke-dasharray:none;stroke-dashoffset:1.08779998000000000;stroke-opacity:1" />
    <path
       clip-path="none"
       style="fill:url(#linearGradient3697);fill-opacity:1;fill-rule:evenodd;stroke:none;stroke-width:1.00000011999999994;stroke-linecap:butt;stroke-linejoin:miter;stroke-miterlimit:4;stroke-dasharray:none;stroke-opacity:1;filter:url(#filter3387)"
       d="M 69.875971,12.057888 C 68.798883,12.123171 67.34775,12.277052 66.875971,12.995388 L 68.465655,24.133449 L 79,23.37409 L 79,22.90534 C 80.740958,20.33518 74.219552,11.998548 69.875971,12.057888 z"
       id="path3091"
       transform="matrix(-0.510885,0,0,0.510885,-94.233492,-123.51872)"
       sodipodi:nodetypes="cccccc" />
    <path
       clip-path="none"
       sodipodi:nodetypes="cccccc"
       transform="matrix(0.510885,0,0,0.510885,-159.26341,-123.51872)"
       id="path3095"
       d="M 69.875971,12.057888 C 68.798883,12.123171 67.34775,12.277052 66.875971,12.995388 L 68.172686,21.789699 L 79,23.37409 L 79,22.90534 C 80.740958,20.33518 74.219552,11.998548 69.875971,12.057888 z"
       style="fill:url(#linearGradient3699);fill-opacity:1;fill-rule:evenodd;stroke:none;stroke-width:1.00000011999999994;stroke-linecap:butt;stroke-linejoin:miter;stroke-miterlimit:4;stroke-dasharray:none;stroke-opacity:1;filter:url(#filter3387)" />
    <path
       sodipodi:nodetypes="cccccc"
       transform="matrix(-0.510885,0,0,-0.510885,-94.233492,-62.55009)"
       id="path3197"
       d="M 69.875971,12.057888 C 68.798883,12.123171 67.34775,12.277052 66.875971,12.995388 L 69.051593,23.742824 L 79,23.37409 L 79,22.90534 C 80.740958,20.33518 74.219552,11.998548 69.875971,12.057888 z"
       style="opacity:0.68164804000000001;fill:url(#linearGradient3701);fill-opacity:1;fill-rule:evenodd;stroke:none;stroke-width:1.00000011999999994;stroke-linecap:butt;stroke-linejoin:miter;stroke-miterlimit:4;stroke-dasharray:none;stroke-opacity:1;filter:url(#filter3387)" />
    <path
       style="opacity:0.70786515999999999;fill:url(#linearGradient3703);fill-opacity:1;fill-rule:evenodd;stroke:none;stroke-width:1.00000011999999994;stroke-linecap:butt;stroke-linejoin:miter;stroke-miterlimit:4;stroke-dasharray:none;stroke-opacity:1;filter:url(#filter3387)"
       d="M 69.875971,12.057888 C 68.798883,12.123171 67.34775,12.277052 66.875971,12.995388 L 67.782061,23.547512 L 79,23.37409 L 79,22.90534 C 80.740958,20.33518 74.219552,11.998548 69.875971,12.057888 z"
       id="path3199"
       transform="matrix(0.510885,0,0,-0.510885,-159.26341,-62.55009)"
       sodipodi:nodetypes="cccccc" />
    <path
       clip-path="none"
       style="opacity:0.55056176000000001;fill:url(#linearGradient3705);fill-opacity:1;fill-rule:evenodd;stroke:none;stroke-width:1.00000011999999994;stroke-linecap:butt;stroke-linejoin:miter;stroke-miterlimit:4;stroke-dasharray:none;stroke-opacity:1;filter:url(#filter3387)"
       d="M 69.875971,12.057888 C 68.798883,12.123171 67.34775,12.277052 66.875971,12.995388 L 68.465655,24.133449 L 79,23.37409 L 79,22.90534 C 80.740958,20.33518 74.219552,11.998548 69.875971,12.057888 z"
       id="path3221"
       transform="matrix(0.510885,0,0,0.510885,-142.91509,-107.5668)"
       sodipodi:nodetypes="cccccc" />
    <path
       clip-path="none"
       style="opacity:0.58052433999999997;fill:url(#radialGradient3707);fill-opacity:1;stroke:none;stroke-width:1.25000000000000000;stroke-linecap:round;stroke-linejoin:round;stroke-miterlimit:4;stroke-dasharray:none;stroke-dashoffset:1.08779998000000000;stroke-opacity:1"
       d="M -128.90982,-117.75508 C -132.29956,-117.75508 -135.1043,-114.95035 -135.1043,-111.5606 L -135.1043,-101.40676 L -145.25814,-101.40676 C -148.64788,-101.40676 -151.45262,-100.12556 -151.45262,-96.735813 C -151.45262,-97.702687 -151.45262,-93.270856 -151.45262,-91.252926 C -151.45262,-87.863174 -148.64788,-85.058446 -145.25814,-85.058446 L -135.1043,-85.058446 L -135.1043,-74.904598 C -135.1043,-71.514856 -132.29956,-68.710117 -128.90982,-68.710117 L -124.95045,-68.710117 C -121.56071,-68.710117 -118.75598,-71.514856 -118.75598,-74.904598 L -118.75598,-85.058446 L -108.60213,-85.058446 C -105.21239,-85.058446 -102.40766,-87.863174 -102.40766,-91.252926 L -102.40766,-95.212285 C -102.40766,-98.602028 -105.21239,-101.40676 -108.60213,-101.40676 L -118.75598,-101.40676 L -118.75598,-111.5606 C -118.75598,-114.95035 -121.56071,-117.75508 -124.95045,-117.75508 L -128.90982,-117.75508 z"
       id="path3028"
       sodipodi:nodetypes="ccccccccccccccccccccc" />
    <path
       clip-path="none"
       sodipodi:nodetypes="cccccc"
       transform="matrix(-0.510885,0,0,0.510885,-110.94519,-107.5668)"
       id="path3217"
       d="M 69.875971,12.057888 C 68.798883,12.123171 67.34775,12.277052 66.875971,12.995388 L 68.465655,24.133449 L 79,23.37409 L 79,22.90534 C 80.740958,20.33518 74.219552,11.998548 69.875971,12.057888 z"
       style="opacity:0.55056176000000001;fill:url(#linearGradient3709);fill-opacity:1;fill-rule:evenodd;stroke:none;stroke-width:1.00000011999999994;stroke-linecap:butt;stroke-linejoin:miter;stroke-miterlimit:4;stroke-dasharray:none;stroke-opacity:1;filter:url(#filter3387)" />
    <path
       clip-path="none"
       id="rect2407"
       d="M -128.90982,-113.668 C -130.06847,-113.668 -131.01722,-112.71926 -131.01722,-111.5606 L -131.01722,-97.319683 L -145.25814,-97.319683 C -146.41679,-97.319683 -147.36554,-96.370941 -147.36554,-95.212285 L -147.36554,-91.252926 C -147.36554,-90.094271 -146.41679,-89.145526 -145.25814,-89.145526 L -131.01722,-89.145526 L -131.01722,-74.904598 C -131.01722,-73.74594 -130.06847,-72.797198 -128.90982,-72.797198 L -124.95045,-72.797198 C -123.7918,-72.797198 -122.84306,-73.74594 -122.84306,-74.904598 L -122.84306,-89.145526 L -108.60213,-89.145526 C -107.44348,-89.145526 -106.49473,-90.094271 -106.49473,-91.252926 L -106.49473,-95.212285 C -106.49473,-96.370941 -107.44348,-97.319683 -108.60213,-97.319683 L -122.84306,-97.319683 L -122.84306,-111.5606 C -122.84306,-112.71926 -123.7918,-113.668 -124.95045,-113.668 L -128.90982,-113.668 z"
       style="fill:url(#radialGradient3711);fill-opacity:1;stroke:none;stroke-width:1.25000000000000000;stroke-linecap:round;stroke-linejoin:round;stroke-miterlimit:4;stroke-dasharray:none;stroke-dashoffset:1.08779998000000000;stroke-opacity:1" />
    <path
       clip-path="none"
       id="path3038"
       d="M -128.90982,-113.668 C -130.06847,-113.668 -131.01722,-112.71926 -131.01722,-111.5606 L -131.01722,-97.319683 L -145.25814,-97.319683 C -146.41679,-97.319683 -147.36554,-96.370941 -147.36554,-95.212285 L -147.36554,-91.252926 C -147.36554,-91.140736 -147.31879,-91.041196 -147.30168,-90.933623 C -143.97307,-90.453831 -140.46467,-90.167296 -136.82853,-90.167296 C -125.07657,-90.167296 -114.54798,-92.854377 -107.6123,-97.064243 C -107.90783,-97.22277 -108.24513,-97.319683 -108.60213,-97.319683 L -122.84306,-97.319683 L -122.84306,-111.5606 C -122.84306,-112.71926 -123.7918,-113.668 -124.95045,-113.668 L -128.90982,-113.668 z"
       style="fill:url(#linearGradient3714);fill-opacity:1;stroke:none;stroke-width:1.25000000000000000;stroke-linecap:round;stroke-linejoin:round;stroke-miterlimit:4;stroke-dasharray:none;stroke-dashoffset:1.08779998000000000;stroke-opacity:1" />
    <path
       clip-path="none"
       sodipodi:nodetypes="cccccccccsssssssccccccccccccscssscsscccc"
       id="path3062"
       d="M -128.90982,-113.668 C -130.06847,-113.668 -131.01722,-112.71926 -131.01722,-111.5606 L -131.01722,-110.53883 C -131.01722,-111.69749 -129.65976,-113.25929 -128.50111,-113.25929 L -124.54174,-113.25929 C -124.25208,-113.25929 -123.96343,-113.20669 -123.71156,-113.09964 C -123.5989,-112.84469 -123.21345,-111.95058 -123.21345,-111.65639 L -122.84306,-97.319683 L -122.81113,-111.5606 C -122.81113,-112.14876 -123.05744,-112.67799 -123.44973,-113.06133 C -123.53941,-113.15101 -123.63266,-113.24425 -123.7371,-113.31677 C -123.74496,-113.32209 -123.76111,-113.31155 -123.76903,-113.31677 C -123.87334,-113.3874 -123.97203,-113.45703 -124.08834,-113.50835 C -124.09719,-113.51211 -124.11136,-113.50471 -124.12027,-113.50835 C -124.23736,-113.55811 -124.37684,-113.60811 -124.50343,-113.63607 C -124.51389,-113.63823 -124.52485,-113.63407 -124.53536,-113.63607 C -124.66172,-113.66212 -124.78523,-113.66592 -124.91852,-113.668 L -124.95045,-113.668 L -125.42941,-113.668 L -128.90982,-113.668 z M -145.25814,-97.319683 C -146.41679,-97.319683 -147.36554,-96.370941 -147.36554,-95.212285 L -147.36554,-94.190515 C -147.36554,-95.349172 -146.41679,-96.910977 -145.25814,-96.910977 L -131.01722,-97.319683 L -145.25814,-97.319683 z M -122.84306,-97.319683 L -108.78374,-96.796825 C -115.69008,-93.090763 -126.9942,-90.263076 -137.91416,-90.263087 C -139.73223,-90.263087 -141.53077,-90.354995 -143.27846,-90.486599 C -141.17321,-90.29561 -139.00806,-90.167296 -136.79661,-90.167296 C -125.79208,-90.167296 -115.86692,-92.541593 -108.95337,-96.297915 C -108.94524,-96.30233 -108.92956,-96.293492 -108.92144,-96.297915 C -108.46925,-96.544397 -108.03799,-96.805848 -107.6123,-97.064243 C -107.75157,-97.138955 -107.9038,-97.212175 -108.05932,-97.255825 C -108.06953,-97.258532 -108.08098,-97.25326 -108.09125,-97.255825 C -108.24694,-97.297155 -108.40327,-97.316906 -108.5702,-97.319683 L -108.60213,-97.319683 L -109.08109,-97.319683 L -122.84306,-97.319683 z"
       style="fill:url(#linearGradient3716);fill-opacity:1;stroke:none;stroke-width:1.25000000000000000;stroke-linecap:round;stroke-linejoin:round;stroke-miterlimit:4;stroke-dasharray:none;stroke-dashoffset:1.08779998000000000;stroke-opacity:1" />
    <path
       clip-path="none"
       style="fill:url(#linearGradient3718);fill-opacity:1;stroke:none;stroke-width:1.25000000000000000;stroke-linecap:round;stroke-linejoin:round;stroke-miterlimit:4;stroke-dasharray:none;stroke-dashoffset:1.08779998000000000;stroke-opacity:1"
       d="M -128.90982,-113.668 C -130.06847,-113.668 -131.01722,-112.71926 -131.01722,-111.5606 L -131.01722,-110.53883 C -131.01722,-111.69749 -129.65976,-113.25929 -128.50111,-113.25929 L -124.54174,-113.25929 C -124.25208,-113.25929 -123.96343,-113.20669 -123.71156,-113.09964 C -123.5989,-112.84469 -123.21345,-111.95058 -123.21345,-111.65639 L -122.84306,-97.319683 L -122.81113,-111.5606 C -122.81113,-112.14876 -123.05744,-112.67799 -123.44973,-113.06133 C -123.53941,-113.15101 -123.63266,-113.24425 -123.7371,-113.31677 C -123.74496,-113.32209 -123.76111,-113.31155 -123.76903,-113.31677 C -123.87334,-113.3874 -123.97203,-113.45703 -124.08834,-113.50835 C -124.09719,-113.51211 -124.11136,-113.50471 -124.12027,-113.50835 C -124.23736,-113.55811 -124.37684,-113.60811 -124.50343,-113.63607 C -124.51389,-113.63823 -124.52485,-113.63407 -124.53536,-113.63607 C -124.66172,-113.66212 -124.78523,-113.66592 -124.91852,-113.668 L -124.95045,-113.668 L -125.42941,-113.668 L -128.90982,-113.668 z M -145.25814,-97.319683 C -146.41679,-97.319683 -147.36554,-96.370941 -147.36554,-95.212285 L -147.36554,-94.190515 C -147.36554,-95.349172 -146.41679,-96.910977 -145.25814,-96.910977 L -131.01722,-97.319683 L -145.25814,-97.319683 z M -122.84306,-97.319683 L -108.68396,-96.796825 C -115.59029,-93.090763 -126.9942,-90.263076 -137.91416,-90.263087 C -139.73223,-90.263087 -141.53077,-90.354995 -143.27846,-90.486599 C -141.17321,-90.29561 -139.00806,-90.167296 -136.79661,-90.167296 C -125.79208,-90.167296 -115.86692,-92.541593 -108.95337,-96.297915 C -108.94524,-96.30233 -108.92956,-96.293492 -108.92144,-96.297915 C -108.46925,-96.544397 -108.03799,-96.805848 -107.6123,-97.064243 C -107.75157,-97.138955 -107.9038,-97.212175 -108.05932,-97.255825 C -108.06953,-97.258532 -108.08098,-97.25326 -108.09125,-97.255825 C -108.24694,-97.297155 -108.40327,-97.316906 -108.5702,-97.319683 L -108.60213,-97.319683 L -109.08109,-97.319683 L -122.84306,-97.319683 z"
       id="path3087"
       sodipodi:nodetypes="cccccccccsssssssccccccccccccscssscsscccc" />
    <path
       transform="matrix(1.02177,0,0,1.0217699,-192.32341,-158.62587)"
       clip-path="none"
       style="fill:none;fill-opacity:1;stroke:url(#linearGradient3720);stroke-width:1.17149556000000010;stroke-linecap:round;stroke-linejoin:round;stroke-miterlimit:4;stroke-dasharray:none;stroke-dashoffset:1.08779998000000000;stroke-opacity:1;filter:url(#filter3191)"
       d="M 62.0625,43.999992 C 60.92853,43.999992 59.999996,44.928523 59.999996,46.062492 L 59.999996,59.999992 L 46.062496,59.999992 C 44.928527,59.999992 43.999996,60.92852 43.999996,62.06249 L 43.999996,65.93749 C 43.999996,67.07146 44.928527,67.99999 46.062496,67.99999 L 59.999996,67.99999 L 59.999996,81.9375 C 59.999996,83.07147 60.92853,84 62.0625,84 L 65.9375,84 C 67.07147,84 68,83.07147 68,81.9375 L 68,67.99999 L 81.9375,67.99999 C 83.07147,67.99999 84,67.07146 84,65.93749 L 84,62.06249 C 84,60.92852 83.07147,59.999992 81.9375,59.999992 L 68,59.999992 L 68,46.062492 C 68,44.928523 67.07147,43.999992 65.9375,43.999992 L 62.0625,43.999992 z"
       id="path3099" />
  </g>
  <g
     id="g2701"
     transform="matrix(0.8938134,0,0,0.8938134,-32.882175,-4.503314)"
     inkscape:export-filename="/home/alex/code/solarbeam/images/dst-status-nodst.png"
     inkscape:export-xdpi="23.723852"
     inkscape:export-ydpi="23.723852">
    <g
       id="g2703">
      <path
         id="path2705"
         d="M 68.562931,51.180321 C 68.562931,63.069348 58.913865,72.718414 47.024837,72.718414 C 35.13581,72.718414 25.486744,63.069348 25.486744,51.180321 C 25.486744,39.291293 35.13581,29.642227 47.024837,29.642227 C 58.913865,29.642227 68.562931,39.291293 68.562931,51.180321 z"
         style="fill:#ffbb00;fill-opacity:0.98076896;fill-rule:evenodd;stroke-width:1.30841005;stroke-linejoin:round"
         transform="matrix(0.964932,0,0,0.945883,4.5275,-0.755837)" />
      <path
         sodipodi:nodetypes="ccccc"
         id="path2707"
         d="M 47.528593,16.16176 C 45.898483,19.614057 49.854492,24.832983 52.948318,20.915009 C 54.140635,17.504718 53.293569,13.765848 53.697143,10.219636 C 54.487548,7.1213391 53.255242,4.6333245 49.816525,4.2638439 C 47.827095,4.6538753 48.093381,12.121929 47.528593,16.16176 z"
         style="fill:#ffbb00;fill-opacity:0.98076896;fill-rule:evenodd;stroke:none;stroke-width:1.25;stroke-linecap:round;stroke-linejoin:round;stroke-dasharray:none;stroke-opacity:1" />
      <path
         id="path2709"
         d="M 25.351361,9.6280267 C 24.177553,9.6650009 23.13241,10.3666 22.672912,11.426055 C 22.213414,12.48551 22.423152,13.71009 23.210419,14.564355 C 23.210419,14.564355 25.660339,17.277274 33.281894,25.767161 C 33.97649,26.61639 35.090974,27.022748 36.18288,26.824904 C 37.274787,26.62706 38.167447,25.857026 38.506464,24.820515 C 38.84548,23.784005 38.576001,22.648723 37.805012,21.865392 C 30.185852,13.378174 27.763691,10.662587 27.763691,10.662587 C 27.16374,9.973658 26.274697,9.5923797 25.351361,9.6280267 L 25.351361,9.6280267 z"
         style="fill:#ffbb00;fill-opacity:0.98076896;fill-rule:evenodd;stroke:none;stroke-width:1.25;stroke-linecap:round;stroke-linejoin:round;stroke-dasharray:none;stroke-opacity:1" />
      <path
         sodipodi:nodetypes="ccccccc"
         id="path2711"
         d="M 10.605997,24.850836 C 10.294477,25.944669 9.8595731,27.750975 11.663835,28.445848 C 15.812898,31.213173 20.623006,32.425267 25.709081,34.485651 C 27.664918,35.253282 29.918357,33.479168 29.70163,31.45669 C 29.609856,29.537305 27.54781,28.740073 25.969546,28.202447 C 22.007786,26.586027 17.94964,25.207431 13.907066,23.799061 C 12.711068,23.679186 11.582122,24.236346 10.605997,24.850836 z"
         style="fill:#ffbb00;fill-opacity:0.98076896;fill-rule:evenodd;stroke:none;stroke-width:1.25;stroke-linecap:round;stroke-linejoin:round;stroke-dasharray:none;stroke-opacity:1" />
      <path
         sodipodi:nodetypes="cccccc"
         id="path2713"
         d="M 6.4751911,46.864567 C 6.6045527,48.241684 5.8733996,49.830959 7.1859746,50.637843 C 9.9302872,51.535336 16.453697,51.502774 21.387826,51.552007 C 23.778565,51.367447 24.943871,48.044152 23.100939,46.498907 C 21.682925,45.177968 19.620711,45.771687 17.872619,45.587178 C 15.822326,45.541971 6.0332469,45.212039 6.4751911,46.864567 z"
         style="fill:#ffbb00;fill-opacity:0.98076896;fill-rule:evenodd;stroke:none;stroke-width:1.25;stroke-linecap:round;stroke-linejoin:round;stroke-dasharray:none;stroke-opacity:1" />
      <path
         id="path2715"
         d="M 25.110128,56.833515 C 24.635643,56.845428 24.170727,56.966958 23.753193,57.188221 C 18.048948,60.068762 15.126367,61.511034 13.651563,62.213227 C 12.964478,62.540366 12.638223,62.674732 12.475552,62.745286 C 12.463639,62.750453 12.394768,62.770709 12.38509,62.774845 C 10.968278,63.231533 10.104819,64.634855 10.353679,66.076361 C 10.602539,67.517867 11.888962,68.564545 13.380176,68.538821 C 13.380176,68.538821 13.776214,68.529712 13.892796,68.509262 C 14.009378,68.488812 14.099529,68.467247 14.164183,68.450145 C 14.293492,68.41594 14.368211,68.385351 14.43557,68.361468 C 14.570287,68.313703 14.657266,68.27356 14.79742,68.213674 C 15.077727,68.0939 15.496961,67.904251 16.274971,67.53382 C 17.830991,66.792959 20.80108,65.341371 26.527372,62.449697 C 27.811388,61.841595 28.485379,60.43499 28.142949,59.078023 C 27.800518,57.721055 26.535277,56.784685 25.110128,56.833515 L 25.110128,56.833515 z"
         style="fill:#ffbb00;fill-opacity:0.98076896;fill-rule:evenodd;stroke:none;stroke-width:1.25;stroke-linecap:round;stroke-linejoin:round;stroke-dasharray:none;stroke-opacity:1" />
      <path
         id="path2717"
         d="M 33.734206,68.036321 C 32.959883,68.062731 32.225635,68.380269 31.683726,68.923086 C 26.499873,74.004606 23.884053,76.472898 22.63749,77.613389 C 22.151723,78.057821 22.035574,78.161429 21.913792,78.263684 C 21.908509,78.26812 21.888281,78.289365 21.883637,78.293243 C 20.95859,78.830881 20.395612,79.810723 20.406086,80.864863 C 20.406086,80.864863 20.526663,81.751505 20.526702,81.751628 C 20.526742,81.751752 21.220089,82.874699 21.220247,82.874865 C 21.220405,82.87503 22.3959,83.643271 22.396257,83.643395 C 22.396614,83.643519 23.420864,83.820748 23.421497,83.820748 C 23.422131,83.820748 23.893277,83.795395 24.054734,83.76163 C 24.216191,83.727866 24.31551,83.678623 24.416583,83.643395 C 24.618731,83.57294 24.741602,83.516826 24.838741,83.466042 C 25.227295,83.262904 25.296829,83.195482 25.441823,83.081777 C 25.731812,82.854366 26.092961,82.547133 26.768605,81.928982 C 28.119891,80.692678 30.727913,78.225186 35.935457,73.120443 C 36.836302,72.270512 37.108692,70.963819 36.620209,69.835593 C 36.131725,68.707367 34.983692,67.991628 33.734206,68.036321 L 33.734206,68.036321 z"
         style="fill:#ffbb00;fill-opacity:0.98076896;fill-rule:evenodd;stroke:none;stroke-width:1.25;stroke-linecap:round;stroke-linejoin:round;stroke-dasharray:none;stroke-opacity:1" />
      <path
         sodipodi:nodetypes="cccccccccc"
         id="path2719"
         d="M 51.012516,71.760736 C 50.212586,71.791552 49.457979,72.132885 48.914983,72.709519 C 48.371987,73.286152 48.085165,74.050761 48.117721,74.834857 C 48.242567,79.852493 47.094194,85.913537 48.648359,87.977014 C 50.438846,88.757077 51.464828,88.6684 51.464828,88.6684 L 53.883411,87.82922 C 54.48024,85.879062 54.494925,82.757814 54.148544,74.687063 C 54.140956,73.887359 53.803158,73.124791 53.212239,72.573386 C 52.621321,72.021982 51.827709,71.728796 51.012516,71.760736 L 51.012516,71.760736 z"
         style="fill:#ffbb00;fill-opacity:0.98076896;fill-rule:evenodd;stroke:none;stroke-width:1.25;stroke-linecap:round;stroke-linejoin:round;stroke-dasharray:none;stroke-opacity:1" />
      <path
         id="path2721"
         d="M 66.391116,69.721175 C 65.274171,69.705057 64.239633,70.295485 63.702511,71.255608 C 63.165389,72.21573 63.213682,73.388246 63.828016,74.302797 C 66.981735,79.111738 68.740622,81.490746 69.85884,82.786188 C 70.41795,83.433909 70.797164,83.809504 71.306238,84.175454 C 71.560775,84.35843 71.838073,84.551315 72.361632,84.707514 C 72.623412,84.785613 72.95929,84.865298 73.356718,84.855308 C 73.555431,84.850314 73.771311,84.817949 73.989954,84.766632 C 74.208597,84.715314 74.623191,84.530161 74.623191,84.530161 C 75.642113,84.046837 76.29912,83.044895 76.324551,81.935572 C 76.349981,80.82625 75.739552,79.796388 74.743807,79.268685 C 74.721284,79.244728 74.74366,79.257765 74.47242,78.943537 C 73.685549,78.031957 71.975025,75.808675 68.893908,71.110441 C 68.35317,70.26208 67.411435,69.739336 66.391116,69.721175 z"
         style="fill:#ffbb00;fill-opacity:0.98076896;fill-rule:evenodd;stroke:none;stroke-width:1.25;stroke-linecap:round;stroke-linejoin:round;stroke-dasharray:none;stroke-opacity:1" />
      <path
         sodipodi:nodetypes="ccccccc"
         id="path2723"
         d="M 75.678585,58.547929 C 74.350085,58.696737 73.280177,59.685317 73.050186,60.97653 C 72.820197,62.267745 73.485048,63.55324 74.683499,64.134552 C 78.173701,65.900386 82.495456,69.348908 85.388211,68.793319 C 87.781904,68.339597 87.987224,66.715782 87.794658,65.091968 C 87.396773,63.531843 86.007081,62.745623 77.457678,58.873076 C 76.91259,58.588708 76.291589,58.475214 75.678585,58.547929 z"
         style="fill:#ffbb00;fill-opacity:0.98076896;fill-rule:evenodd;stroke:none;stroke-width:1.25;stroke-linecap:round;stroke-linejoin:round;stroke-dasharray:none;stroke-opacity:1" />
      <path
         id="path2725"
         d="M 91.961809,43.56159 C 91.632442,43.568645 91.30648,43.628557 90.996877,43.738943 C 90.806306,43.756752 90.61662,43.767979 89.941483,43.798061 C 88.127488,43.878888 84.361647,43.945855 76.764133,43.945855 C 75.676667,43.930779 74.665161,44.490848 74.11694,45.411599 C 73.568719,46.33235 73.568719,47.471132 74.11694,48.391883 C 74.665161,49.312634 75.676667,49.872702 76.764133,49.857626 C 84.407336,49.857626 88.216687,49.769217 90.21287,49.680273 C 91.210962,49.6358 91.756981,49.617633 92.172888,49.562037 C 92.380841,49.53424 92.520387,49.522175 92.866433,49.414243 C 93.039455,49.360277 93.264565,49.308035 93.680594,49.029978 C 93.784601,48.960464 93.913245,48.851443 94.042443,48.734389 C 94.171642,48.617335 94.464368,48.291328 94.464601,48.291007 C 94.464833,48.290685 94.826392,47.552199 94.82645,47.552035 C 94.826508,47.551872 95.007375,46.576593 95.007375,46.576593 C 95.023644,45.777322 94.70899,45.005667 94.135172,44.437607 C 93.561353,43.869547 92.777297,43.553518 91.961809,43.56159 z"
         style="fill:#ffbb00;fill-opacity:0.98076896;fill-rule:evenodd;stroke:none;stroke-width:1.25;stroke-linecap:round;stroke-linejoin:round;stroke-dasharray:none;stroke-opacity:1" />
      <path
         sodipodi:nodetypes="ccccccc"
         id="path2727"
         d="M 90.972605,27.977944 C 87.789517,27.977944 87.788502,27.786775 76.37213,30.792166 C 75.287401,31.009164 74.411172,31.791333 74.089517,32.829751 C 73.767862,33.868168 74.052498,34.995865 74.831008,35.76745 C 75.609518,36.539035 76.756724,36.830444 77.819527,36.526583 C 83.03956,35.278537 91.518928,33.776796 91.823174,31.986779 C 93.330138,30.455486 92.051901,29.314223 90.972605,27.977944 z"
         style="fill:#ffbb00;fill-opacity:0.98076896;fill-rule:evenodd;stroke:none;stroke-width:1.25;stroke-linecap:round;stroke-linejoin:round;stroke-dasharray:none;stroke-opacity:1" />
      <path
         sodipodi:nodetypes="cccccc"
         id="path2729"
         d="M 75.99152,10.632665 C 74.201033,11.607743 72.018707,13.57175 66.240346,21.894951 C 65.341048,23.274405 65.752812,25.107308 67.160047,25.988852 C 68.567281,26.870397 70.437094,26.466761 71.336392,25.087307 C 74.285321,20.562707 78.78486,15.324826 79.16407,13.460027 C 78.902326,11.932526 77.446923,10.795056 75.99152,10.632665 z"
         style="fill:#ffbb00;fill-opacity:0.98076896;fill-rule:evenodd;stroke:none;stroke-width:1.25;stroke-linecap:round;stroke-linejoin:round;stroke-dasharray:none;stroke-opacity:1" />
      <path
         id="path2731"
         d="M 58.218067,41.781933 C 58.218067,48.389411 52.611721,53.752002 45.703903,53.752002 C 38.796084,53.752002 33.189739,48.389411 33.189739,41.781933 C 33.189739,35.174454 38.796084,29.811863 45.703903,29.811863 C 52.611721,29.811863 58.218067,35.174454 58.218067,41.781933 z"
         style="fill:url(#radialGradient2733);fill-opacity:1;fill-rule:evenodd;stroke:none;stroke-width:1pt" />
    </g>
  </g>
</svg>
